<svg width="103" height="42" viewBox="0 0 103 42" fill="none" xmlns="http://www.w3.org/2000/svg">
<path d="M95.5001 18.3V18C91.9001 16.7 88.3001 15.6 84.7001 14.6V11.4C84.5001 11.3 84.4001 11.3 84.3001 11.3V14.5C76.1001 12.3 67.7001 11 59.2001 10.4C59.0001 10.1 58.8001 9.70005 58.5001 9.40005C58.0001 8.70005 57.1001 8.00005 56.3001 7.30005C55.5001 6.60005 55.4001 5.80005 55.4001 5.30005C55.2001 5.30005 55.1001 5.30005 55.0001 5.30005V10.3C53.4001 10.2 51.7001 10.2001 50.1001 10.2001C46.8001 10.2001 43.6001 10.3 40.3001 10.6C40.3001 10.4001 40.2001 10.1 40.2001 9.90005C40.0001 9.90005 39.9001 9.90005 39.7001 9.90005V10.5C27.9001 11.4 16.3001 13.9 5.1001 17.8V18.2001C16.3001 14.2001 27.9001 11.8 39.7001 10.9V15C36.1001 15.3 32.5001 15.7 28.9001 16.3C28.2001 15.5 28.1001 14.6 28.0001 13.8C27.8001 13.8 27.7001 13.8 27.6001 13.9V16.5C20.0001 17.8 12.5001 19.7 5.2001 22.3V22.7001C12.5001 20.1 20.0001 18.2001 27.6001 16.9001V21C24.4001 21.5 21.1001 22.2001 17.9001 23V19.9001C17.7001 19.9001 17.6001 20 17.4001 20V23C13.3001 24 9.2001 25.3001 5.1001 26.7001V27C9.1001 25.6 13.2001 24.3 17.4001 23.3V27.4001C13.3001 28.4001 9.2001 29.7 5.1001 31.1V31.5C9.1001 30.1 13.2001 28.8 17.4001 27.8V31.9001C13.3001 32.9001 9.2001 34.1 5.1001 35.6V36C8.5001 34.8 11.9001 33.8 15.3001 32.8C14.7001 33.1 14.2001 33.5 13.7001 34C13.0001 34.7001 12.5001 35.5 12.5001 36.2001C12.5001 36.6 12.7001 36.9 13.0001 37.1C13.3001 37.3 13.8001 37.3 14.3001 37.1C15.1001 36.9 16.0001 36.3001 16.6001 35.7001C17.3001 35 17.8001 34.2001 17.8001 33.5V32.2001C28.3001 29.5 39.0001 28.2001 50.0001 28.2001C65.6001 28.2001 80.8001 30.9001 95.5001 36.2001V35.8C80.8001 30.5 65.6001 27.9001 50.0001 27.9001C41.4001 27.9001 32.9001 28.7 24.6001 30.3C25.4001 30.1 26.2001 29.7 26.8001 29.1C27.5001 28.5 28.0001 27.8 28.0001 27.1V25.6C28.9001 25.5 29.8001 25.3001 30.6001 25.2001C30.6001 25.2001 30.6001 25.3 30.5001 25.3C30.6001 25.3 30.7001 25.3 30.8001 25.3C30.8001 25.3 30.8001 25.2001 30.9001 25.2001C32.2001 25 33.5001 24.8001 34.9001 24.7001C34.9001 24.8001 34.9001 24.9001 34.9001 24.9001C34.9001 25.3001 35.1001 25.6001 35.4001 25.9001C35.7001 26.1001 36.2001 26.2 36.7001 26.1C37.5001 26 38.4001 25.6 39.0001 25.1C39.3001 24.8 39.6001 24.5 39.8001 24.2001C43.2001 23.9001 46.6001 23.8 50.0001 23.8C57.0001 23.8 63.9001 24.3001 70.8001 25.4001V25.9001C70.5001 25.6001 69.9001 25.4 69.3001 25.3C68.6001 25.2 67.7001 25.4 67.1001 25.8C66.4001 26.2 65.9001 26.8001 65.9001 27.4001C65.9001 27.8001 66.1001 28.2001 66.4001 28.5C66.7001 28.8 67.2001 29 67.7001 29C68.5001 29.1 69.4001 28.9 70.0001 28.6C70.7001 28.2 71.2001 27.6001 71.2001 26.9001V25.4001C72.1001 25.5001 73.0001 25.7001 73.8001 25.9001L73.7001 26C73.8001 26 73.9001 26 74.0001 26.1L74.1001 26C81.3001 27.3 88.4001 29.2 95.4001 31.8V31.4001C88.5001 28.9001 81.4001 27 74.3001 25.7001C74.9001 24.9001 75.5001 23.6 75.5001 22.2001C75.5001 22.1 75.5001 22 75.5001 21.8C77.6001 22.2 79.7001 22.7001 81.8001 23.2001C81.3001 23.2001 80.9001 23.4 80.5001 23.6C79.8001 23.9 79.3001 24.5 79.3001 25.2001C79.3001 25.6 79.5001 26 79.8001 26.3C80.1001 26.6 80.6001 26.9 81.1001 27C81.9001 27.2001 82.8001 27.1 83.4001 26.8C84.1001 26.5 84.6001 26 84.6001 25.2001V24C88.2001 25 91.8001 26.1001 95.4001 27.4001V27C91.8001 25.7001 88.2001 24.6 84.6001 23.6V19.5C88.2001 20.5 91.8001 21.6001 95.4001 22.9001V22.5C91.8001 21.2 88.2001 20.1 84.6001 19.1V15C88.3001 15.9 91.9001 17.1 95.5001 18.3ZM17.4001 32.2001C17.2001 32.2001 17.0001 32.3 16.9001 32.3C17.0001 32.3 17.2001 32.3001 17.4001 32.2001ZM27.5001 26.1C27.2001 25.9 26.7001 25.9 26.0001 26C25.3001 26.1 24.5001 26.6 23.8001 27.2001C23.1001 27.8001 22.6001 28.6 22.6001 29.2001C22.6001 29.6 22.8001 29.9 23.1001 30.1C23.4001 30.3 23.8001 30.3001 24.3001 30.2001C22.1001 30.6 19.9001 31.1 17.8001 31.6V27.5C21.0001 26.7001 24.2001 26 27.5001 25.5V26.1ZM27.5001 25.3C24.3001 25.8 21.0001 26.5 17.8001 27.3V23.2001C21.0001 22.4001 24.2001 21.7001 27.5001 21.2001V25.3ZM27.9001 18C28.9001 17.9 30.0001 18.4 30.7001 19C31.0001 19.3 31.3001 19.8001 31.5001 20.2001C30.3001 20.4001 29.1001 20.5001 28.0001 20.7001V18H27.9001ZM30.8001 24.8C29.9001 24.9 28.9001 25.1 28.0001 25.2001V21.1C29.2001 20.9 30.4001 20.7 31.7001 20.5C31.8001 20.7 31.8001 21 31.8001 21.3C31.8001 22.6 31.2001 23.9 30.8001 24.8ZM39.7001 22.1C39.4001 21.9 38.9001 21.8001 38.2001 21.9001C37.5001 22.0001 36.6001 22.4001 36.0001 22.9001C35.5001 23.3001 35.1001 23.8001 35.0001 24.2001C33.7001 24.3001 32.5001 24.5 31.2001 24.7001C31.9001 23.5 32.4001 22.1 32.4001 20.8C32.4001 20.7 32.4001 20.6 32.4001 20.5C34.9001 20.2 37.3001 19.9001 39.8001 19.7001V22.1H39.7001ZM39.7001 19.4001C37.2001 19.6001 34.7001 19.9001 32.2001 20.2001C32.0001 19.4001 31.6001 18.7001 31.0001 18.2001C30.5001 17.7001 29.8001 17.1 29.1001 16.5C32.6001 16 36.1001 15.5 39.6001 15.3V19.4001H39.7001ZM59.2001 12.5C59.2001 12.7 59.2001 13.4 59.2001 13.4C59.2001 13.4 58.7001 12.6001 58.4001 12.2001C58.0001 11.7001 57.4001 11.2 56.8001 10.6C57.3001 10.6 57.9001 10.7001 58.4001 10.7001C58.9001 11.2001 59.2001 11.8 59.2001 12.5ZM59.2001 15.2001V15.9001C59.1001 15.8001 59.1001 15.7 59.0001 15.6C58.9001 15.5 58.7001 15.3001 58.6001 15.2001C58.8001 15.1 59.0001 15.2001 59.2001 15.2001ZM58.2001 14.8C57.6001 14.2 57.0001 13.7001 56.5001 13.2001C55.8001 12.7001 55.2001 11 55.3001 10.9C55.3001 10.9 57.4001 12.1 58.1001 13C58.6001 13.6 59.0001 14.2 59.1001 14.8C58.8001 14.8 58.5001 14.8 58.2001 14.8ZM56.8001 14.7001C56.3001 14.7001 55.8001 14.7 55.3001 14.6V13.7001C55.7001 14.0001 56.2001 14.3001 56.8001 14.7001ZM57.3001 15C58.0001 15.4 58.5001 15.8001 58.8001 16.2001C59.4001 16.9001 59.4001 17.4001 59.5001 18.2001C59.5001 18.5001 59.5001 18.8001 59.4001 19.2001C58.1001 19.1 56.7001 19 55.3001 19V15C56.0001 15 56.6001 15 57.3001 15ZM55.3001 8.10005C55.3001 8.10005 57.4001 9.30005 58.1001 10.2001C58.1001 10.2001 58.1001 10.3 58.2001 10.3C57.6001 10.3 57.0001 10.2001 56.4001 10.2001C56.3001 10.1001 56.3001 10.1 56.2001 10C55.4001 9.40005 55.3001 8.20005 55.3001 8.10005ZM50.0001 10.4C51.6001 10.4 53.3001 10.4 54.9001 10.5V14.6C53.3001 14.5 51.6001 14.5 50.0001 14.5C48.0001 14.5 46.0001 14.6 44.0001 14.6C43.8001 14.2 43.5001 13.8 43.2001 13.5C42.7001 12.9 41.8001 12.3 41.0001 11.6C40.6001 11.3 40.4001 11.0001 40.3001 10.6C43.5001 10.5001 46.7001 10.4 50.0001 10.4ZM44.0001 17.6C44.0001 17.6 43.7001 17.3 43.6001 17.1C43.1001 16.6 42.6001 16.2 41.8001 15.6C41.7001 15.5 41.5001 15.4001 41.4001 15.2001C42.1001 15.2001 42.8001 15.1 43.4001 15.1C43.7001 15.6 44.0001 16.1 44.0001 16.7001C44.0001 16.8001 44.0001 17.6 44.0001 17.6ZM43.6001 18.1C43.9001 18.4 44.1001 18.8 44.2001 19.1C42.9001 19.1 41.5001 19.2 40.1001 19.3V16.1C41.1001 16.7 42.9001 17.4 43.6001 18.1ZM44.2001 15C46.1001 14.9 48.1001 14.9001 50.0001 14.9001C51.6001 14.9001 53.3001 14.9 54.9001 15V19.1C53.2001 19 51.6001 19 50.0001 19C48.2001 19 46.4001 19 44.6001 19.1C44.5001 18.7 44.3001 18.3 44.3001 18C44.3001 17.7 44.5001 16.9001 44.5001 16.4001C44.5001 15.9001 44.3001 15.4 44.2001 15ZM40.1001 12.7001C40.2001 12.7001 42.2001 13.7001 42.9001 14.4001C43.0001 14.5001 43.0001 14.6 43.1001 14.6C42.4001 14.6 41.8001 14.7001 41.1001 14.7001C40.5001 14.0001 40.0001 12.8001 40.1001 12.7001ZM70.8001 25C63.9001 24 57.0001 23.4001 50.0001 23.4001C46.6001 23.4001 43.3001 23.5 40.0001 23.8C40.1001 23.6 40.2001 23.4 40.2001 23.1V19.6C41.6001 19.5 43.0001 19.4001 44.3001 19.4001C44.3001 19.6001 44.3001 19.8 44.4001 20C44.4001 20.8 44.0001 22 43.6001 22.5C43.7001 22.5 43.8001 22.5 43.9001 22.5C44.4001 21.7001 44.8001 20.8001 44.8001 19.7001C44.8001 19.6 44.8001 19.5001 44.8001 19.4001C46.6001 19.3001 48.3001 19.3 50.1001 19.3C51.7001 19.3 53.4001 19.3001 55.0001 19.4001V19.8C54.7001 19.5 54.1001 19.4001 53.5001 19.4001C52.8001 19.4001 51.9001 19.7001 51.3001 20.2001C50.5001 20.7001 50.0001 21.3 50.0001 22C50.0001 22.4 50.2001 22.8 50.5001 23C50.8001 23.2001 51.3001 23.4001 51.8001 23.4001C52.6001 23.4001 53.5001 23.1 54.1001 22.7001C54.8001 22.2001 55.3001 21.6001 55.3001 20.9001V19.4001C56.6001 19.4001 57.9001 19.5 59.3001 19.6C59.1001 20.1 58.9001 20.5001 58.8001 20.7001C58.9001 20.7001 59.0001 20.7001 59.1001 20.7001C59.3001 20.4001 59.5001 20 59.7001 19.6C63.4001 19.9 67.2001 20.3001 70.9001 20.9001V25H70.8001ZM70.8001 20.6C67.1001 20 63.4001 19.6001 59.7001 19.4001C59.8001 19.0001 59.9001 18.6 59.9001 18.1C59.9001 17.4 59.6001 16.8001 59.5001 16.4001C59.5001 16.2001 59.6001 15.7 59.6001 15.3C63.3001 15.6 67.0001 16 70.7001 16.6V20.6H70.8001ZM70.8001 13.5V16.1C67.1001 15.5 63.4001 15.1001 59.7001 14.9001C59.6001 14.5001 59.5001 14.1 59.5001 13.9C59.5001 13.6 59.7001 12.9 59.7001 12.4C59.7001 11.9 59.6001 11.3 59.3001 10.8C67.7001 11.4 76.1001 12.8001 84.2001 14.9001V19C80.2001 17.9 76.2001 17.1001 72.1001 16.4001C71.4001 15.3001 71.3001 14.4001 71.2001 13.6C71.0001 13.6 70.9001 13.5 70.8001 13.5ZM74.0001 19.8C74.3001 20.2 74.6001 20.7001 74.7001 21.2001C73.5001 21.0001 72.4001 20.8 71.2001 20.6V17.8C72.2001 18.1 73.3001 18.9 74.0001 19.8ZM74.0001 25.6C73.1001 25.4 72.1001 25.3 71.2001 25.1V21C72.4001 21.2 73.6001 21.4 74.8001 21.6C74.9001 21.9 74.9001 22.1001 74.9001 22.4001C75.0001 23.7001 74.4001 24.8 74.0001 25.6ZM75.4001 21.4001C75.2001 20.6001 74.8001 19.8 74.2001 19C73.7001 18.3 73.0001 17.5001 72.3001 16.7001C76.3001 17.4001 80.2001 18.2001 84.1001 19.2001V23.3C81.3001 22.6 78.4001 22.0001 75.4001 21.4001ZM83.9001 23.7001C84.0001 23.8001 84.1001 23.8001 84.1001 23.9001C84.0001 23.8001 84.0001 23.7001 83.9001 23.7001Z" fill="white"/>
</svg>
