<svg width="100" height="101" viewBox="0 0 100 101" fill="none" xmlns="http://www.w3.org/2000/svg">
<g id="horizontal_two 1">
<path id="music_slow" d="M89.5032 53.4832C90.2092 44.7992 81.6138 40.7519 76.9704 39.8252C76.635 39.7589 76.2889 39.8447 76.0246 40.0601C75.7608 40.2758 75.6078 40.5978 75.6078 40.9378V71.4346C73.7619 69.1907 70.9602 67.7562 67.8282 67.7562C62.2822 67.7562 57.7705 72.252 57.7705 77.7781C57.7705 83.3046 62.2822 87.8005 67.8282 87.8005C73.3737 87.8005 77.8854 83.3046 77.8854 77.7781V42.4204C80.8806 43.3631 87.7305 46.2855 87.2411 53.1924C87.1273 53.6009 86.7598 54.9922 86.5619 56.5522C86.2118 59.3137 86.5694 61.1163 87.6562 62.0634C88.1286 62.4759 88.8488 62.4276 89.263 61.9563C89.6772 61.4847 89.6291 60.7677 89.1554 60.3549C88.388 59.686 88.7007 56.3154 89.4614 53.7089C89.4828 53.6353 89.497 53.5595 89.5032 53.4832ZM67.8282 85.5309C63.5385 85.5309 60.0482 82.0528 60.0482 77.7781C60.0482 73.5034 63.5385 70.0258 67.8282 70.0258C72.1179 70.0258 75.6078 73.5034 75.6078 77.7781C75.6078 82.0528 72.1179 85.5309 67.8282 85.5309Z" fill="white"/>
<g id="music_loud">
<path id="Vector" d="M53.8141 16.4073V11.3613L25.1055 18.9472V24.2587L53.8141 16.4073Z" fill="white"/>
<path id="vector" d="M56.0775 9.74308C56.0722 9.70263 56.0674 9.66246 56.0582 9.62345C56.0559 9.61411 56.0561 9.60483 56.0537 9.59549C56.0476 9.573 56.0368 9.55335 56.0295 9.53155C56.0158 9.49027 56.0021 9.44946 55.9839 9.41042C55.9694 9.379 55.952 9.34999 55.9348 9.32043C55.9154 9.28699 55.8961 9.25388 55.8734 9.22274C55.8518 9.19307 55.828 9.16603 55.8039 9.13879C55.7797 9.11147 55.7557 9.08454 55.729 9.05966C55.7024 9.03492 55.6741 9.01298 55.6454 8.99093C55.616 8.96837 55.5868 8.94626 55.5553 8.92659C55.5252 8.90778 55.4938 8.89202 55.4619 8.87609C55.4284 8.8593 55.3952 8.84284 55.3599 8.82932C55.325 8.81594 55.2892 8.80624 55.253 8.79629C55.2187 8.7869 55.1847 8.77732 55.1491 8.77114C55.1083 8.76399 55.0669 8.76136 55.025 8.7587C55.0008 8.75714 54.9778 8.75146 54.9531 8.75146C54.9429 8.75146 54.9335 8.75418 54.9234 8.75446C54.8846 8.75548 54.8458 8.76108 54.8066 8.76618C54.7675 8.77125 54.7285 8.77574 54.6907 8.78466C54.6809 8.78698 54.6711 8.78676 54.6613 8.78937L23.675 16.9772C23.1754 17.1091 22.828 17.5595 22.828 18.0741V48.5706C20.9821 46.3268 18.1804 44.8922 15.0484 44.8922C9.50243 44.8922 4.99072 49.3881 4.99072 54.9144C4.99072 60.4407 9.50243 64.9368 15.0484 64.9368C20.594 64.9368 25.1057 60.4407 25.1057 54.9144V26.6122L53.8143 18.7608V40.3829C51.9683 38.139 49.1665 36.7044 46.0342 36.7044C40.4887 36.7044 35.977 41.2002 35.977 46.7266C35.977 52.2529 40.4887 56.7487 46.0342 56.7487C51.5802 56.7487 56.0919 52.2529 56.0919 46.7266V9.88629C56.0919 9.87585 56.0891 9.86618 56.0888 9.85579C56.0878 9.8183 56.0823 9.78087 56.0775 9.74308ZM15.0484 62.6671C10.7587 62.6671 7.26837 59.1893 7.26837 54.9144C7.26837 50.6397 10.7587 47.1619 15.0484 47.1619C19.3381 47.1619 22.828 50.6397 22.828 54.9144C22.828 59.1893 19.3381 62.6671 15.0484 62.6671ZM53.8143 11.3613V16.4073L25.1057 24.2587V18.9472L53.8143 11.3613ZM38.2546 46.7266C38.2546 42.4519 41.7445 38.974 46.0342 38.974C50.3239 38.974 53.8143 42.4519 53.8143 46.7266C53.8143 51.0012 50.3239 54.4791 46.0342 54.4791C41.7445 54.4791 38.2546 51.0012 38.2546 46.7266Z" fill="white"/>
</g>
<g id="music_low">
<path id="Vector_2" d="M35.0128 76.7905L25.0508 82.4123C24.5036 82.7213 24.3114 83.4137 24.6211 83.9594C24.8306 84.3278 25.2163 84.5348 25.6131 84.5348C25.8035 84.5348 25.9961 84.4873 26.1736 84.3876L36.1356 78.7658C36.6828 78.4568 36.875 77.7644 36.5654 77.2187C36.2553 76.6739 35.5604 76.4828 35.0128 76.7905Z" fill="white"/>
<path id="Vector_3" d="M43.3756 82.3568C42.7964 82.1108 42.1278 82.3763 41.8796 82.9522L38.4137 91.0001C38.166 91.5764 38.4333 92.2436 39.0112 92.4909C39.158 92.5534 39.3101 92.5831 39.46 92.5831C39.9018 92.5831 40.3217 92.3256 40.5072 91.8956L43.9731 83.8476C44.2209 83.2713 43.9535 82.6042 43.3756 82.3568Z" fill="white"/>
<path id="Vector_4" d="M52.9555 87.2814C52.8763 86.6599 52.3064 86.2184 51.6823 86.2982C51.0586 86.3771 50.6169 86.945 50.6956 87.5669L51.7495 95.8565C51.8224 96.4296 52.3127 96.8486 52.8781 96.8486C52.9257 96.8486 52.9741 96.8459 53.0226 96.8397C53.6463 96.7608 54.0881 96.1929 54.0093 95.571L52.9555 87.2814Z" fill="white"/>
</g>
<g id="music_up">
<path id="Vector_5" d="M70.2565 22.6445C70.8855 22.6445 71.3953 22.1365 71.3953 21.5097V13.9061C71.3953 13.2793 70.8855 12.7713 70.2565 12.7713C69.6275 12.7713 69.1177 13.2793 69.1177 13.9061V21.5097C69.1177 22.1365 69.6275 22.6445 70.2565 22.6445Z" fill="white"/>
<path id="Vector_6" d="M79.7438 25.4479C80.0339 25.4479 80.3243 25.3382 80.5463 25.1183L86.2111 19.5118C86.6573 19.07 86.6599 18.3515 86.2164 17.9068C85.7738 17.462 85.0522 17.4596 84.6061 17.9013L78.9413 23.5078C78.4951 23.9496 78.4924 24.6682 78.936 25.1128C79.1584 25.3362 79.4511 25.4479 79.7438 25.4479Z" fill="white"/>
<path id="Vector_7" d="M94.9826 30.0276C94.8492 29.4152 94.2428 29.0268 93.628 29.1598L83.7963 31.2914C83.1816 31.4246 82.7919 32.029 82.9258 32.6414C83.0414 33.1727 83.513 33.5353 84.0374 33.5353C84.1175 33.5353 84.1989 33.5269 84.2803 33.5092L94.112 31.3776C94.7268 31.2444 95.1165 30.64 94.9826 30.0276Z" fill="white"/>
</g>
</g>
</svg>
