<svg width="100" height="125" viewBox="0 0 100 125" fill="none" xmlns="http://www.w3.org/2000/svg">
<path d="M95.5001 36.3V36C91.9001 34.7 88.3001 33.6 84.7001 32.6V29.4C84.5001 29.3 84.4001 29.3 84.3001 29.3V32.5C76.1001 30.3 67.7001 29 59.2001 28.4C59.0001 28.1 58.8001 27.7 58.5001 27.4C58.0001 26.7 57.1001 26 56.3001 25.3C55.5001 24.6 55.4001 23.8 55.4001 23.3C55.2001 23.3 55.1001 23.3 55.0001 23.3V28.3C53.4001 28.2 51.7001 28.2001 50.1001 28.2001C46.8001 28.2001 43.6001 28.3 40.3001 28.6C40.3001 28.4 40.2001 28.1 40.2001 27.9C40.0001 27.9 39.9001 27.9 39.7001 27.9V28.5C27.9001 29.4 16.3001 31.9 5.1001 35.8V36.2001C16.3001 32.2001 27.9001 29.8 39.7001 28.9V33C36.1001 33.3 32.5001 33.7 28.9001 34.3C28.2001 33.5 28.1001 32.6 28.0001 31.8C27.8001 31.8 27.7001 31.8 27.6001 31.9V34.5C20.0001 35.8 12.5001 37.7 5.2001 40.3V40.7001C12.5001 38.1001 20.0001 36.2001 27.6001 34.9001V39C24.4001 39.5 21.1001 40.2 17.9001 41V37.9001C17.7001 37.9001 17.6001 38 17.4001 38V41C13.3001 42 9.2001 43.3001 5.1001 44.7001V45C9.1001 43.6 13.2001 42.3 17.4001 41.3V45.4001C13.3001 46.4001 9.2001 47.7 5.1001 49.1V49.5C9.1001 48.1 13.2001 46.8 17.4001 45.8V49.9001C13.3001 50.9001 9.2001 52.1 5.1001 53.6V54C8.5001 52.8 11.9001 51.8 15.3001 50.8C14.7001 51.1 14.2001 51.5 13.7001 52C13.0001 52.7 12.5001 53.5001 12.5001 54.2001C12.5001 54.6001 12.7001 54.9 13.0001 55.1C13.3001 55.3 13.8001 55.3 14.3001 55.1C15.1001 54.9 16.0001 54.3001 16.6001 53.7001C17.3001 53.0001 17.8001 52.2 17.8001 51.5V50.2001C28.3001 47.5001 39.0001 46.2001 50.0001 46.2001C65.6001 46.2001 80.8001 48.9001 95.5001 54.2001V53.8C80.8001 48.5 65.6001 45.9001 50.0001 45.9001C41.4001 45.9001 32.9001 46.7 24.6001 48.3C25.4001 48.1 26.2001 47.7 26.8001 47.1C27.5001 46.5 28.0001 45.8 28.0001 45.1V43.6C28.9001 43.5 29.8001 43.3001 30.6001 43.2001C30.6001 43.2001 30.6001 43.3 30.5001 43.3C30.6001 43.3 30.7001 43.3 30.8001 43.3C30.8001 43.3 30.8001 43.2001 30.9001 43.2001C32.2001 43.0001 33.5001 42.8001 34.9001 42.7001C34.9001 42.8001 34.9001 42.9001 34.9001 42.9001C34.9001 43.3001 35.1001 43.6001 35.4001 43.9001C35.7001 44.1001 36.2001 44.2 36.7001 44.1C37.5001 44 38.4001 43.6 39.0001 43.1C39.3001 42.8 39.6001 42.5001 39.8001 42.2001C43.2001 41.9001 46.6001 41.8 50.0001 41.8C57.0001 41.8 63.9001 42.3001 70.8001 43.4001V43.9001C70.5001 43.6001 69.9001 43.4 69.3001 43.3C68.6001 43.2 67.7001 43.4 67.1001 43.8C66.4001 44.2 65.9001 44.8001 65.9001 45.4001C65.9001 45.8001 66.1001 46.2 66.4001 46.5C66.7001 46.8 67.2001 47 67.7001 47C68.5001 47.1 69.4001 46.9 70.0001 46.6C70.7001 46.2 71.2001 45.6001 71.2001 44.9001V43.4001C72.1001 43.5001 73.0001 43.7001 73.8001 43.9001L73.7001 44C73.8001 44 73.9001 44 74.0001 44.1L74.1001 44C81.3001 45.3 88.4001 47.2 95.4001 49.8V49.4001C88.5001 46.9001 81.4001 45.0001 74.3001 43.7001C74.9001 42.9001 75.5001 41.6001 75.5001 40.2001C75.5001 40.1001 75.5001 40 75.5001 39.8C77.6001 40.2 79.7001 40.7001 81.8001 41.2001C81.3001 41.2001 80.9001 41.4 80.5001 41.6C79.8001 41.9 79.3001 42.5001 79.3001 43.2001C79.3001 43.6001 79.5001 44 79.8001 44.3C80.1001 44.6 80.6001 44.9 81.1001 45C81.9001 45.2 82.8001 45.1 83.4001 44.8C84.1001 44.5 84.6001 44.0001 84.6001 43.2001V42C88.2001 43 91.8001 44.1001 95.4001 45.4001V45C91.8001 43.7 88.2001 42.6 84.6001 41.6V37.5C88.2001 38.5 91.8001 39.6001 95.4001 40.9001V40.5C91.8001 39.2 88.2001 38.1 84.6001 37.1V33C88.3001 33.9 91.9001 35.1 95.5001 36.3ZM17.4001 50.2001C17.2001 50.2001 17.0001 50.3 16.9001 50.3C17.0001 50.3 17.2001 50.3001 17.4001 50.2001ZM27.5001 44.1C27.2001 43.9 26.7001 43.9 26.0001 44C25.3001 44.1 24.5001 44.6001 23.8001 45.2001C23.1001 45.8001 22.6001 46.6001 22.6001 47.2001C22.6001 47.6001 22.8001 47.9 23.1001 48.1C23.4001 48.3 23.8001 48.3001 24.3001 48.2001C22.1001 48.6001 19.9001 49.1 17.8001 49.6V45.5C21.0001 44.7 24.2001 44 27.5001 43.5V44.1ZM27.5001 43.3C24.3001 43.8 21.0001 44.5 17.8001 45.3V41.2001C21.0001 40.4001 24.2001 39.7001 27.5001 39.2001V43.3ZM27.9001 36C28.9001 35.9 30.0001 36.4 30.7001 37C31.0001 37.3 31.3001 37.8001 31.5001 38.2001C30.3001 38.4001 29.1001 38.5001 28.0001 38.7001V36H27.9001ZM30.8001 42.8C29.9001 42.9 28.9001 43.1001 28.0001 43.2001V39.1C29.2001 38.9 30.4001 38.7 31.7001 38.5C31.8001 38.7 31.8001 39 31.8001 39.3C31.8001 40.6 31.2001 41.9 30.8001 42.8ZM39.7001 40.1C39.4001 39.9 38.9001 39.8001 38.2001 39.9001C37.5001 40.0001 36.6001 40.4001 36.0001 40.9001C35.5001 41.3001 35.1001 41.8001 35.0001 42.2001C33.7001 42.3001 32.5001 42.5001 31.2001 42.7001C31.9001 41.5001 32.4001 40.1 32.4001 38.8C32.4001 38.7 32.4001 38.6 32.4001 38.5C34.9001 38.2 37.3001 37.9001 39.8001 37.7001V40.1H39.7001ZM39.7001 37.4001C37.2001 37.6001 34.7001 37.9001 32.2001 38.2001C32.0001 37.4001 31.6001 36.7001 31.0001 36.2001C30.5001 35.7001 29.8001 35.1 29.1001 34.5C32.6001 34 36.1001 33.5 39.6001 33.3V37.4001H39.7001ZM59.2001 30.5C59.2001 30.7 59.2001 31.4 59.2001 31.4C59.2001 31.4 58.7001 30.6001 58.4001 30.2001C58.0001 29.7001 57.4001 29.2 56.8001 28.6C57.3001 28.6 57.9001 28.7001 58.4001 28.7001C58.9001 29.2001 59.2001 29.8 59.2001 30.5ZM59.2001 33.2001V33.9001C59.1001 33.8001 59.1001 33.7 59.0001 33.6C58.9001 33.5 58.7001 33.3001 58.6001 33.2001C58.8001 33.1001 59.0001 33.2001 59.2001 33.2001ZM58.2001 32.8C57.6001 32.2 57.0001 31.7001 56.5001 31.2001C55.8001 30.7001 55.2001 29 55.3001 28.9C55.3001 28.9 57.4001 30.1 58.1001 31C58.6001 31.6 59.0001 32.2 59.1001 32.8C58.8001 32.8 58.5001 32.8 58.2001 32.8ZM56.8001 32.7001C56.3001 32.7001 55.8001 32.7 55.3001 32.6V31.7001C55.7001 32.0001 56.2001 32.3001 56.8001 32.7001ZM57.3001 33C58.0001 33.4 58.5001 33.8001 58.8001 34.2001C59.4001 34.9001 59.4001 35.4001 59.5001 36.2001C59.5001 36.5001 59.5001 36.8001 59.4001 37.2001C58.1001 37.1001 56.7001 37 55.3001 37V33C56.0001 33 56.6001 33 57.3001 33ZM55.3001 26.1C55.3001 26.1 57.4001 27.3001 58.1001 28.2001C58.1001 28.2001 58.1001 28.3 58.2001 28.3C57.6001 28.3 57.0001 28.2001 56.4001 28.2001C56.3001 28.1001 56.3001 28.1 56.2001 28C55.4001 27.4 55.3001 26.2 55.3001 26.1ZM50.0001 28.4C51.6001 28.4 53.3001 28.4 54.9001 28.5V32.6C53.3001 32.5 51.6001 32.5 50.0001 32.5C48.0001 32.5 46.0001 32.6 44.0001 32.6C43.8001 32.2 43.5001 31.8 43.2001 31.5C42.7001 30.9 41.8001 30.3 41.0001 29.6C40.6001 29.3 40.4001 29 40.3001 28.6C43.5001 28.5 46.7001 28.4 50.0001 28.4ZM44.0001 35.6C44.0001 35.6 43.7001 35.3 43.6001 35.1C43.1001 34.6 42.6001 34.2 41.8001 33.6C41.7001 33.5 41.5001 33.4001 41.4001 33.2001C42.1001 33.2001 42.8001 33.1 43.4001 33.1C43.7001 33.6 44.0001 34.1001 44.0001 34.7001C44.0001 34.8001 44.0001 35.6 44.0001 35.6ZM43.6001 36.1C43.9001 36.4 44.1001 36.8 44.2001 37.1C42.9001 37.1 41.5001 37.2 40.1001 37.3V34.1C41.1001 34.7 42.9001 35.4 43.6001 36.1ZM44.2001 33C46.1001 32.9 48.1001 32.9001 50.0001 32.9001C51.6001 32.9001 53.3001 32.9 54.9001 33V37.1C53.2001 37 51.6001 37 50.0001 37C48.2001 37 46.4001 37 44.6001 37.1C44.5001 36.7 44.3001 36.3 44.3001 36C44.3001 35.7 44.5001 34.9001 44.5001 34.4001C44.5001 33.9001 44.3001 33.4 44.2001 33ZM40.1001 30.7001C40.2001 30.7001 42.2001 31.7001 42.9001 32.4001C43.0001 32.5001 43.0001 32.6 43.1001 32.6C42.4001 32.6 41.8001 32.7001 41.1001 32.7001C40.5001 32.0001 40.0001 30.8001 40.1001 30.7001ZM70.8001 43C63.9001 42 57.0001 41.4001 50.0001 41.4001C46.6001 41.4001 43.3001 41.5 40.0001 41.8C40.1001 41.6 40.2001 41.4 40.2001 41.1V37.6C41.6001 37.5 43.0001 37.4001 44.3001 37.4001C44.3001 37.6001 44.3001 37.8 44.4001 38C44.4001 38.8 44.0001 40 43.6001 40.5C43.7001 40.5 43.8001 40.5 43.9001 40.5C44.4001 39.7 44.8001 38.8001 44.8001 37.7001C44.8001 37.6001 44.8001 37.5001 44.8001 37.4001C46.6001 37.3001 48.3001 37.3 50.1001 37.3C51.7001 37.3 53.4001 37.3001 55.0001 37.4001V37.8C54.7001 37.5 54.1001 37.4001 53.5001 37.4001C52.8001 37.4001 51.9001 37.7001 51.3001 38.2001C50.5001 38.7001 50.0001 39.3 50.0001 40C50.0001 40.4 50.2001 40.8 50.5001 41C50.8001 41.2 51.3001 41.4001 51.8001 41.4001C52.6001 41.4001 53.5001 41.1001 54.1001 40.7001C54.8001 40.2001 55.3001 39.6001 55.3001 38.9001V37.4001C56.6001 37.4001 57.9001 37.5 59.3001 37.6C59.1001 38.1 58.9001 38.5001 58.8001 38.7001C58.9001 38.7001 59.0001 38.7001 59.1001 38.7001C59.3001 38.4001 59.5001 38 59.7001 37.6C63.4001 37.9 67.2001 38.3001 70.9001 38.9001V43H70.8001ZM70.8001 38.6C67.1001 38 63.4001 37.6001 59.7001 37.4001C59.8001 37.0001 59.9001 36.6 59.9001 36.1C59.9001 35.4 59.6001 34.8001 59.5001 34.4001C59.5001 34.2001 59.6001 33.7 59.6001 33.3C63.3001 33.6 67.0001 34 70.7001 34.6V38.6H70.8001ZM70.8001 31.5V34.1C67.1001 33.5 63.4001 33.1001 59.7001 32.9001C59.6001 32.5001 59.5001 32.1 59.5001 31.9C59.5001 31.6 59.7001 30.9 59.7001 30.4C59.7001 29.9 59.6001 29.3 59.3001 28.8C67.7001 29.4 76.1001 30.8001 84.2001 32.9001V37C80.2001 35.9 76.2001 35.1001 72.1001 34.4001C71.4001 33.3001 71.3001 32.4 71.2001 31.6C71.0001 31.6 70.9001 31.5 70.8001 31.5ZM74.0001 37.8C74.3001 38.2 74.6001 38.7001 74.7001 39.2001C73.5001 39.0001 72.4001 38.8 71.2001 38.6V35.8C72.2001 36.1 73.3001 36.9 74.0001 37.8ZM74.0001 43.6C73.1001 43.4 72.1001 43.3 71.2001 43.1V39C72.4001 39.2 73.6001 39.4 74.8001 39.6C74.9001 39.9 74.9001 40.1001 74.9001 40.4001C75.0001 41.7001 74.4001 42.8 74.0001 43.6ZM75.4001 39.4001C75.2001 38.6001 74.8001 37.8 74.2001 37C73.7001 36.3 73.0001 35.5001 72.3001 34.7001C76.3001 35.4001 80.2001 36.2001 84.1001 37.2001V41.3C81.3001 40.6 78.4001 40.0001 75.4001 39.4001ZM83.9001 41.7001C84.0001 41.8001 84.1001 41.8001 84.1001 41.9001C84.0001 41.8001 84.0001 41.7001 83.9001 41.7001Z" fill="black"/>
</svg>
