<svg version="1.1" id="Layer_1" xmlns="http://www.w3.org/2000/svg" xmlns:xlink="http://www.w3.org/1999/xlink" x="0px" y="0px"
	 viewBox="0 0 78.63 77.53" style="enable-background:new 0 0 78.63 77.53;" xml:space="preserve">
 
<g>
	<g id="horizontal_x5F_two_1_00000173130940977919751930000017728553221810869896_">
		<path id="music_slow " class="st0" d="M73.83,39.54
			c0.01-0.06,0.02-0.13,0.04-0.19c0.62-7.66-6.93-11.22-11-12.04c-0.29-0.06-0.6,0.02-0.83,0.21c-0.23,0.19-0.37,0.47-0.37,0.77
			v26.87c-1.99-2.43-5.26-3.78-8.77-3.03c-3.34,0.71-6.01,3.4-6.7,6.74c-1.32,6.36,4.26,11.89,10.63,10.49
			c4.06-0.89,6.84-4.68,6.84-8.84l0-30.94c2.63,0.83,8.65,3.41,8.22,9.49c-0.1,0.36-0.42,1.59-0.6,2.96
			c-0.31,2.43,0.01,4.02,0.96,4.86c0.41,0.36,1.05,0.32,1.41-0.09c0.36-0.42,0.32-1.05-0.09-1.41
			C72.89,44.81,73.16,41.84,73.83,39.54z M54.78,67.56c-3.76,0-6.82-3.06-6.82-6.82c0-3.76,3.06-6.82,6.82-6.82
			c3.76,0,6.82,3.06,6.82,6.82C61.61,64.5,58.55,67.56,54.78,67.56z"/>
		<g id="music_loud">
			<path id="Vector" class="st0" d="M42.66,6.72V2.31l-25,6.63v4.64
				L42.66,6.72z"/>
			<path id="vector" class="st0" d="M44.65,0.87c0-0.04-0.01-0.07-0.02-0.1
				c0-0.01,0-0.02,0-0.02c-0.01-0.02-0.01-0.04-0.02-0.06c-0.01-0.04-0.02-0.07-0.04-0.11c-0.01-0.03-0.03-0.05-0.04-0.08
				c-0.02-0.03-0.03-0.06-0.05-0.09c-0.02-0.03-0.04-0.05-0.06-0.07c-0.02-0.02-0.04-0.05-0.07-0.07c-0.02-0.02-0.05-0.04-0.07-0.06
				c-0.03-0.02-0.05-0.04-0.08-0.06c-0.03-0.02-0.05-0.03-0.08-0.04c-0.03-0.01-0.06-0.03-0.09-0.04c-0.03-0.01-0.06-0.02-0.09-0.03
				c-0.03-0.01-0.06-0.02-0.09-0.02c-0.04-0.01-0.07-0.01-0.11-0.01C43.71,0,43.69,0,43.67,0c-0.01,0-0.02,0-0.03,0
				c-0.03,0-0.07,0.01-0.1,0.01c-0.03,0-0.07,0.01-0.1,0.02c-0.01,0-0.02,0-0.03,0L16.41,7.2c-0.44,0.12-0.74,0.51-0.74,0.97v26.86
				c-1.99-2.43-5.26-3.78-8.77-3.03c-3.34,0.71-6.01,3.4-6.7,6.74c-1.32,6.36,4.25,11.89,10.63,10.49c4.06-0.89,6.84-4.67,6.84-8.83
				l0-24.72l25-6.86v19c-1.99-2.43-5.25-3.78-8.76-3.04c-3.34,0.71-6.01,3.4-6.7,6.74c-1.32,6.36,4.25,11.89,10.62,10.5
				c4.06-0.89,6.84-4.67,6.84-8.83c0-9.74,0-32.19,0-32.19c0-0.01,0-0.02,0-0.03C44.66,0.93,44.65,0.9,44.65,0.87z M8.49,47.44
				c-3.76,0-6.82-3.06-6.82-6.82c0-3.76,3.06-6.82,6.82-6.82s6.82,3.06,6.82,6.82C15.31,44.37,12.25,47.44,8.49,47.44z M42.66,2.31
				v4.41l-25,6.86V8.94L42.66,2.31z M28.84,33.4c0-3.76,3.06-6.82,6.82-6.82c3.76,0,6.82,3.06,6.82,6.82c0,3.76-3.06,6.82-6.82,6.82
				C31.9,40.23,28.84,37.17,28.84,33.4z"/>
		</g>
		<g id="music_low">
			<path id="Vector_2" class="st0" d="M26,59.87l-8.74,4.95
				c-0.48,0.27-0.65,0.88-0.38,1.36c0.18,0.32,0.52,0.51,0.87,0.51c0.17,0,0.34-0.04,0.49-0.13l8.74-4.95
				c0.48-0.27,0.65-0.88,0.38-1.36C27.09,59.77,26.48,59.6,26,59.87z"/>
			<path id="Vector_3" class="st0" d="M33.33,64.77
				c-0.51-0.22-1.09,0.02-1.31,0.52l-3.04,7.08c-0.22,0.51,0.02,1.09,0.52,1.31c0.13,0.06,0.26,0.08,0.39,0.08
				c0.39,0,0.76-0.23,0.92-0.61l3.04-7.08C34.08,65.57,33.84,64.99,33.33,64.77z"/>
			<path id="Vector_4_00000065075020409809506290000018094663373601469612_" class="st0" d="M41.74,69.1
				c-0.07-0.55-0.57-0.94-1.12-0.87c-0.55,0.07-0.93,0.57-0.87,1.12l0.92,7.3c0.06,0.5,0.49,0.87,0.99,0.87c0.04,0,0.08,0,0.13-0.01
				c0.55-0.07,0.93-0.57,0.87-1.12L41.74,69.1z"/>
		</g>
		<g id="music_up">
			<path id="Vector_5" class="st0" d="M56.66,12.21c0.55,0,1-0.45,1-1v-6.7
				c0-0.55-0.45-1-1-1c-0.55,0-1,0.45-1,1v6.7C55.66,11.76,56.11,12.21,56.66,12.21z"/>
			<path id="Vector_6" class="st0" d="M65.24,14.67c0.25,0,0.51-0.1,0.7-0.29
				l4.97-4.94c0.39-0.39,0.39-1.02,0-1.41c-0.39-0.39-1.02-0.39-1.41,0l-4.97,4.94c-0.39,0.39-0.39,1.02,0,1.41
				C64.72,14.57,64.98,14.67,65.24,14.67z"/>
			<path id="Vector_7" class="st0" d="M78.6,18.7
				c-0.12-0.54-0.65-0.88-1.19-0.76l-8.62,1.88c-0.54,0.12-0.88,0.65-0.76,1.19c0.1,0.47,0.52,0.79,0.98,0.79
				c0.07,0,0.14-0.01,0.21-0.02l8.62-1.88C78.38,19.77,78.72,19.24,78.6,18.7z"/>
		</g>
	</g>
</g>
</svg>
