<svg width="83" height="86" viewBox="0 0 83 86" fill="none" xmlns="http://www.w3.org/2000/svg">
<g id="noun-music-183481 1">
<g id="Group">
<path id="Vector" d="M44.3458 10.9642V6.52222L19.1628 13.2V17.8756L44.3458 10.9642Z" fill="white"/>
<path id="music_low" d="M75.6521 43.6014C76.2714 35.957 68.7315 32.3942 64.6584 31.5785C64.3642 31.5201 64.0606 31.5957 63.8288 31.7853C63.5974 31.9751 63.4632 32.2586 63.4632 32.5579V59.4036C61.8439 57.4284 59.3863 56.1656 56.6389 56.1656C51.774 56.1656 47.8164 60.1232 47.8164 64.9878C47.8164 69.8526 51.774 73.8103 56.6389 73.8103C61.5034 73.8103 65.4611 69.8526 65.4611 64.9878V33.863C68.0884 34.6928 74.0971 37.2654 73.6678 43.3454C73.5679 43.705 73.2456 44.9297 73.072 46.3029C72.7649 48.7338 73.0786 50.3207 74.0319 51.1544C74.4463 51.5175 75.0781 51.4749 75.4414 51.0601C75.8047 50.6449 75.7626 50.0138 75.347 49.6505C74.6738 49.0616 74.9482 46.0946 75.6154 43.8C75.6342 43.7353 75.6467 43.6685 75.6521 43.6014ZM56.6389 71.8123C52.876 71.8123 49.8143 68.7507 49.8143 64.9878C49.8143 61.2248 52.876 58.1635 56.6389 58.1635C60.4019 58.1635 63.4632 61.2248 63.4632 64.9878C63.4632 68.7507 60.4019 71.8123 56.6389 71.8123Z" fill="white"/>
<path id="music_loud" d="M46.331 5.09776C46.3264 5.06215 46.3222 5.02678 46.3141 4.99244C46.3121 4.98423 46.3123 4.97606 46.3101 4.96784C46.3048 4.94803 46.2953 4.93074 46.2889 4.91155C46.2769 4.87521 46.2648 4.83928 46.2489 4.80492C46.2362 4.77726 46.2209 4.75173 46.2059 4.7257C46.1888 4.69627 46.1719 4.66712 46.152 4.63971C46.1331 4.61359 46.1122 4.58978 46.091 4.56581C46.0698 4.54176 46.0488 4.51806 46.0253 4.49616C46.002 4.47438 45.9772 4.45506 45.952 4.43565C45.9262 4.41579 45.9006 4.39633 45.873 4.37902C45.8465 4.36246 45.819 4.34858 45.7911 4.33455C45.7617 4.31978 45.7325 4.30529 45.7016 4.29339C45.6709 4.28161 45.6396 4.27307 45.6078 4.26432C45.5777 4.25605 45.5479 4.24761 45.5166 4.24217C45.4808 4.23588 45.4445 4.23356 45.4078 4.23122C45.3866 4.22985 45.3664 4.22485 45.3447 4.22485C45.3358 4.22485 45.3275 4.22724 45.3187 4.22749C45.2846 4.22839 45.2506 4.23332 45.2162 4.2378C45.1819 4.24227 45.1477 4.24622 45.1146 4.25407C45.1059 4.25612 45.0974 4.25593 45.0887 4.25822L17.9078 11.4658C17.4696 11.5819 17.1648 11.9784 17.1648 12.4314V39.277C15.5456 37.3017 13.088 36.0389 10.3406 36.0389C5.4757 36.0389 1.51807 39.9965 1.51807 44.8612C1.51807 49.7259 5.4757 53.6838 10.3406 53.6838C15.2051 53.6838 19.1627 49.7259 19.1627 44.8612V19.9473L44.3457 13.0359V32.0694C42.7265 30.0941 40.2688 28.8313 37.5211 28.8313C32.6566 28.8313 28.699 32.7889 28.699 37.6536C28.699 42.5183 32.6566 46.476 37.5211 46.476C42.386 46.476 46.3437 42.5183 46.3437 37.6536V5.22382C46.3437 5.21463 46.3412 5.20612 46.3409 5.19697C46.3401 5.16397 46.3352 5.13102 46.331 5.09776ZM10.3406 51.6858C6.57769 51.6858 3.516 48.6243 3.516 44.8612C3.516 41.0983 6.57769 38.0368 10.3406 38.0368C14.1035 38.0368 17.1648 41.0983 17.1648 44.8612C17.1648 48.6243 14.1035 51.6858 10.3406 51.6858ZM44.3457 6.52221V10.9642L19.1627 17.8756V13.2L44.3457 6.52221ZM30.6969 37.6536C30.6969 33.8907 33.7582 30.8292 37.5211 30.8292C41.2841 30.8292 44.3457 33.8907 44.3457 37.6536C44.3457 41.4165 41.2841 44.478 37.5211 44.478C33.7582 44.478 30.6969 41.4165 30.6969 37.6536Z" fill="white"/>
<g id="music_soft">
<path id="Vector_2" d="M27.8535 64.1183L19.1149 69.0671C18.6349 69.3391 18.4663 69.9486 18.7379 70.429C18.9217 70.7533 19.26 70.9355 19.6081 70.9355C19.7751 70.9355 19.9441 70.8938 20.0998 70.806L28.8384 65.8572C29.3184 65.5852 29.487 64.9756 29.2154 64.4953C28.9434 64.0157 28.3339 63.8475 27.8535 64.1183Z" fill="white"/>
<path id="Vector_3" d="M35.1888 69.0183C34.6807 68.8017 34.0942 69.0354 33.8765 69.5423L30.8362 76.6268C30.6189 77.1341 30.8534 77.7214 31.3603 77.9391C31.4891 77.9942 31.6225 78.0203 31.754 78.0203C32.1415 78.0203 32.5099 77.7936 32.6726 77.4151L35.7128 70.3306C35.9302 69.8233 35.6957 69.236 35.1888 69.0183Z" fill="white"/>
<path id="Vector_4" d="M43.5921 73.3533C43.5226 72.8062 43.0228 72.4176 42.4753 72.4878C41.9282 72.5573 41.5407 73.0572 41.6098 73.6046L42.5342 80.9018C42.5982 81.4063 43.0282 81.7751 43.5242 81.7751C43.566 81.7751 43.6085 81.7728 43.651 81.7673C44.1981 81.6978 44.5856 81.198 44.5165 80.6505L43.5921 73.3533Z" fill="white"/>
</g>
<g id="music_hard">
<path id="Vector_5" d="M58.999 15.6912C59.5507 15.6912 59.9979 15.244 59.9979 14.6923V7.99897C59.9979 7.4472 59.5507 7 58.999 7C58.4472 7 58 7.4472 58 7.99897V14.6923C58 15.244 58.4472 15.6912 58.999 15.6912Z" fill="white"/>
<path id="Vector_6" d="M67.3212 18.159C67.5757 18.159 67.8305 18.0624 68.0252 17.8688L72.9943 12.9335C73.3857 12.5446 73.388 11.9121 72.999 11.5207C72.6107 11.1291 71.9778 11.127 71.5864 11.5158L66.6173 16.4512C66.2259 16.84 66.2235 17.4726 66.6126 17.864C66.8077 18.0606 67.0645 18.159 67.3212 18.159Z" fill="white"/>
<path id="Vector_7" d="M80.6887 22.1904C80.5716 21.6513 80.0397 21.3095 79.5004 21.4265L70.8761 23.3029C70.3368 23.4202 69.995 23.9523 70.1125 24.4913C70.2139 24.959 70.6276 25.2782 71.0876 25.2782C71.1579 25.2782 71.2293 25.2708 71.3007 25.2552L79.925 23.3788C80.4643 23.2616 80.8061 22.7295 80.6887 22.1904Z" fill="white"/>
</g>
</g>
</g>
</svg>
