<svg width="40" height="50" viewBox="0 0 40 50" fill="none" xmlns="http://www.w3.org/2000/svg">
<g clip-path="url(#clip0_877_127)">
<path d="M8.35015 20.2437V8.4937C8.34772 8.15358 8.43575 7.81893 8.60522 7.52403C8.77468 7.22913 9.01949 6.98457 9.31456 6.81541C9.60964 6.64625 9.94438 6.55857 10.2845 6.56134C10.6246 6.56412 10.9579 6.65725 11.2501 6.8312L21.4251 12.7062L31.6064 18.5812C31.8985 18.7495 32.141 18.9918 32.3097 19.2836C32.4784 19.5755 32.5672 19.9066 32.5672 20.2437C32.5672 20.5808 32.4784 20.9119 32.3097 21.2038C32.141 21.4956 31.8985 21.7379 31.6064 21.9062L21.4251 27.7812L11.2501 33.6624C10.958 33.8297 10.6271 33.9173 10.2905 33.9168C9.95393 33.9162 9.62336 33.8273 9.33181 33.6591C9.04026 33.4909 8.79791 33.2491 8.62895 32.958C8.46 32.6669 8.37033 32.3365 8.3689 31.9999L8.35015 20.2437Z" fill="#126D68"/>
</g>
<defs>
<clipPath id="clip0_877_127">
<rect width="40" height="50" fill="#126D68"/>
</clipPath>
</defs>
</svg>
