<svg width="40" height="50" viewBox="0 0 40 50" fill="none" xmlns="http://www.w3.org/2000/svg">
<path fill-rule="evenodd" clip-rule="evenodd" d="M19.9745 0C25.172 16.885 23.0828 14.7489 40 19.9365C23.0828 25.124 25.172 23.0388 19.9745 39.9238C14.7771 23.0388 16.9172 25.124 0 19.9365C16.9172 14.7489 14.7771 16.885 19.9745 0ZM32.9682 24.9206C34.8025 30.8202 34.0382 30.0573 39.949 31.8882C34.0382 33.6682 34.8025 32.9562 32.9682 38.8049C31.1847 32.9562 31.8981 33.6682 26.0382 31.8882C31.8981 30.0573 31.1847 30.8202 32.9682 24.9206ZM10.7006 3.61094C11.7707 6.96759 11.3121 6.56073 14.6752 7.57789C11.3121 8.59506 11.7707 8.18819 10.7006 11.5448C9.68153 8.18819 10.0892 8.59506 6.77707 7.57789C10.0892 6.56073 9.68153 6.96759 10.7006 3.61094Z" fill="white"/>
</svg>
