<svg width="40" height="50" viewBox="0 0 40 50" fill="none" xmlns="http://www.w3.org/2000/svg">
<path d="M27.7598 24.64V12.96C27.7598 12.24 27.3198 11.64 26.6398 11.44L6.83977 5.31996C6.35977 5.15996 5.83977 5.27995 5.39977 5.55995C4.99977 5.87995 4.75977 6.31996 4.75977 6.83996V29.48C4.75977 32.44 7.15977 34.8 10.0798 34.8C13.0398 34.8 15.3998 32.4 15.3998 29.48V29.44V29.4C15.3998 26.44 12.9998 24.08 10.0798 24.08C9.31977 24.08 8.59977 24.24 7.95977 24.52V9.03996L24.5598 14.12V29.52C24.5598 32.48 26.9598 34.84 29.8798 34.84C32.8398 34.84 35.1998 32.44 35.1998 29.52C35.1998 26.56 32.7998 24.2 29.8798 24.2C29.1598 24.2 28.3998 24.36 27.7598 24.64ZM10.1198 31.56C8.95977 31.56 7.99977 30.64 7.99977 29.48C8.03977 28.32 8.95977 27.4 10.1198 27.4C11.2798 27.4 12.2398 28.32 12.2398 29.48C12.1998 30.64 11.2798 31.56 10.1198 31.56ZM32.0398 29.52C32.0398 30.68 31.0798 31.64 29.9198 31.64C28.7598 31.64 27.7998 30.68 27.7998 29.52C27.7998 28.36 28.7598 27.4 29.9198 27.4C31.0798 27.4 32.0398 28.36 32.0398 29.52Z" fill="#1DB7B9"/>
</svg>
