<svg width="40" height="50" viewBox="0 0 40 50" fill="none" xmlns="http://www.w3.org/2000/svg">
<g clip-path="url(#clip0_877_206)">
<path d="M8.75 25.625V28.125C8.75 28.6223 8.94754 29.0992 9.29917 29.4508C9.65081 29.8025 10.1277 30 10.625 30H12.5V28.75H10.625C10.4592 28.75 10.3003 28.6842 10.1831 28.5669C10.0658 28.4497 10 28.2908 10 28.125V25.625C10 25.4592 10.0658 25.3003 10.1831 25.1831C10.3003 25.0658 10.4592 25 10.625 25H12.5V23.75H10.625C10.1277 23.75 9.65081 23.9475 9.29917 24.2992C8.94754 24.6508 8.75 25.1277 8.75 25.625Z" fill="white"/>
<path d="M5 22.5H10.625H12.5V21.25H5V22.5Z" fill="white"/>
<path d="M12.5 26.25H11.25V27.5H12.5V26.25Z" fill="white"/>
<path d="M22.5 26.25H21.25V27.5H22.5V26.25Z" fill="white"/>
<path d="M14.9507 18.75H13.7501V31.25C13.7479 31.4158 13.8117 31.5756 13.9274 31.6943C14.0431 31.8131 14.2012 31.881 14.3669 31.8831C14.5327 31.8853 14.6925 31.8215 14.8112 31.7058C14.93 31.5901 14.9979 31.432 15.0001 31.2663V31.2569L14.9507 18.75Z" fill="white"/>
<path d="M3.75 21.25H2.5V22.5H3.75V21.25Z" fill="white"/>
<path d="M23.5188 21.25H21.25V22.5H23.5188C28.6002 22.4973 33.5312 24.2248 37.5 27.3981V16.3481C33.5315 19.5224 28.6006 21.2512 23.5188 21.25Z" fill="white"/>
<path d="M23.125 23.75H21.25V25H23.125C23.2908 25 23.4497 25.0658 23.5669 25.1831C23.6842 25.3003 23.75 25.4592 23.75 25.625V28.125C23.75 28.2908 23.6842 28.4497 23.5669 28.5669C23.4497 28.6842 23.2908 28.75 23.125 28.75H21.25V30H23.125C23.6223 30 24.0992 29.8025 24.4508 29.4508C24.8025 29.0992 25 28.6223 25 28.125V25.625C25 25.1277 24.8025 24.6508 24.4508 24.2992C24.0992 23.9475 23.6223 23.75 23.125 23.75Z" fill="white"/>
<path d="M16.25 18.75V31.25C16.25 31.255 16.25 31.26 16.25 31.265C16.2649 31.4211 16.3378 31.5659 16.4545 31.6707C16.5711 31.7755 16.7229 31.8326 16.8797 31.8308C17.0365 31.8289 17.1869 31.7681 17.301 31.6605C17.4151 31.553 17.4845 31.4064 17.4956 31.25L17.4506 18.75H16.25Z" fill="white"/>
<path d="M18.75 31.25C18.75 31.4158 18.8158 31.5747 18.9331 31.6919C19.0503 31.8092 19.2092 31.875 19.375 31.875C19.5408 31.875 19.6997 31.8092 19.8169 31.6919C19.9342 31.5747 20 31.4158 20 31.25V18.75H18.75V31.25Z" fill="white"/>
<path d="M24.817 16.6919L25.442 16.0669C25.5592 15.9498 25.6251 15.7908 25.6251 15.6251V15.1751L26.7783 15.4632L26.4333 15.8082C26.3736 15.8658 26.3259 15.9348 26.2932 16.0111C26.2604 16.0873 26.2432 16.1693 26.2425 16.2523C26.2418 16.3353 26.2576 16.4176 26.289 16.4944C26.3204 16.5712 26.3668 16.641 26.4255 16.6997C26.4842 16.7584 26.554 16.8048 26.6308 16.8362C26.7076 16.8676 26.7899 16.8834 26.8729 16.8827C26.9559 16.882 27.0379 16.8648 27.1141 16.832C27.1904 16.7993 27.2594 16.7516 27.317 16.6919L27.942 16.0669C28.0592 15.9498 28.1251 15.7908 28.1251 15.6251V13.1251C28.1251 12.9857 28.0784 12.8503 27.9926 12.7404C27.9068 12.6306 27.7867 12.5526 27.6514 12.5188L25.1514 11.8938C25.0593 11.8708 24.9631 11.8692 24.8703 11.8889C24.7774 11.9086 24.6903 11.9492 24.6154 12.0077C24.5406 12.0661 24.4801 12.1408 24.4384 12.2261C24.3968 12.3115 24.3752 12.4051 24.3751 12.5001V15.3663L23.9333 15.8082C23.8194 15.9261 23.7564 16.0839 23.7578 16.2478C23.7593 16.4117 23.825 16.5685 23.9409 16.6843C24.0568 16.8002 24.2135 16.8659 24.3774 16.8674C24.5413 16.8688 24.6991 16.8058 24.817 16.6919ZM25.6251 13.3007L26.8751 13.6132V14.2001L25.6251 13.8876V13.3007Z" fill="white"/>
<path d="M20.1514 6.89382L17.6514 6.26882C17.5593 6.24585 17.4631 6.24416 17.3703 6.26389C17.2774 6.28361 17.1903 6.32423 17.1154 6.38267C17.0406 6.4411 16.9801 6.51582 16.9384 6.60113C16.8968 6.68645 16.8752 6.78014 16.8751 6.87507V9.74132L16.4333 10.1832C16.3194 10.3011 16.2564 10.4589 16.2578 10.6228C16.2593 10.7867 16.325 10.9435 16.4409 11.0593C16.5568 11.1752 16.7135 11.2409 16.8774 11.2424C17.0413 11.2438 17.1991 11.1808 17.317 11.0669L17.942 10.4419C18.0592 10.3248 18.1251 10.1658 18.1251 10.0001V7.6757L19.3751 7.9882V9.74132L18.9333 10.1832C18.8736 10.2409 18.826 10.3098 18.7932 10.3861C18.7604 10.4623 18.7432 10.5443 18.7425 10.6273C18.7418 10.7103 18.7576 10.7926 18.789 10.8694C18.8204 10.9462 18.8668 11.016 18.9255 11.0747C18.9842 11.1334 19.054 11.1798 19.1308 11.2112C19.2076 11.2426 19.2899 11.2584 19.3729 11.2577C19.4559 11.257 19.5379 11.2398 19.6141 11.207C19.6904 11.1743 19.7594 11.1266 19.817 11.0669L20.442 10.4419C20.5592 10.3248 20.6251 10.1658 20.6251 10.0001V7.50007C20.6251 7.36066 20.5784 7.22526 20.4926 7.11541C20.4068 7.00556 20.2867 6.92756 20.1514 6.89382Z" fill="white"/>
<path d="M8.1251 16.25C8.22184 16.25 8.31726 16.2275 8.40385 16.1844L9.65385 15.5594C9.75786 15.5076 9.84536 15.4278 9.90653 15.3289C9.96769 15.2301 10.0001 15.1162 10.0001 15V12.8863L10.9045 12.4344C11.0528 12.3603 11.1657 12.2303 11.2182 12.073C11.2707 11.9157 11.2586 11.744 11.1845 11.5956C11.1104 11.4473 10.9804 11.3344 10.8231 11.2819C10.6658 11.2294 10.4941 11.2415 10.3457 11.3156L9.09572 11.9406C8.99183 11.9926 8.90445 12.0724 8.8434 12.1712C8.78235 12.27 8.75004 12.3839 8.7501 12.5V14.6138L7.84572 15.0656C7.71961 15.1285 7.61843 15.2321 7.55862 15.3597C7.4988 15.4873 7.48386 15.6314 7.51621 15.7685C7.54856 15.9057 7.62631 16.0278 7.73683 16.1153C7.84736 16.2027 7.98418 16.2501 8.1251 16.25Z" fill="white"/>
<path d="M13.75 15H13.125V16.25H13.75V17.5H15V16.25H15.625V15H15H13.75Z" fill="white"/>
<path d="M18.75 15H18.125V16.25H18.75V17.5H20V16.25H20.625V15H20H18.75Z" fill="white"/>
<path d="M18.125 13.125H15.625V14.375H16.25V17.5H17.5V14.375H18.125V13.125Z" fill="white"/>
</g>
<defs>
<clipPath id="clip0_877_206">
<rect width="40" height="50" fill="white"/>
</clipPath>
</defs>
</svg>
