<svg width="36" height="36" viewBox="0 0 36 36" fill="none" xmlns="http://www.w3.org/2000/svg">
<path fill-rule="evenodd" clip-rule="evenodd" d="M9.02587 14.7912C8.8858 14.7912 8.75064 14.716 8.68065 14.5838L8.02978 13.3578L6.73815 13.0119C6.52996 12.956 6.40611 12.7418 6.46225 12.5335C6.51843 12.325 6.73243 12.2016 6.94076 12.2572L8.39599 12.6472C8.5009 12.6752 8.5887 12.7455 8.63998 12.8413L9.37084 14.2174C9.47174 14.4079 9.39926 14.6444 9.20885 14.7456C9.1504 14.7765 9.08756 14.7913 9.02587 14.7912ZM10.848 18.2214C10.7079 18.2214 10.5728 18.1461 10.5019 18.014L9.58819 16.2927C9.48731 16.1022 9.55958 15.8658 9.75002 15.7645C9.94049 15.6634 10.1773 15.7357 10.2782 15.9263L11.1922 17.6474C11.2938 17.838 11.2214 18.0746 11.0309 18.1757C10.9725 18.2067 10.9097 18.2215 10.848 18.2214ZM12.6691 21.6516C12.5292 21.6516 12.394 21.5763 12.3241 21.4441L11.4103 19.7229C11.3085 19.5324 11.3809 19.2959 11.5713 19.1947C11.7626 19.0937 11.9985 19.1659 12.0995 19.3565L13.0143 21.0776C13.1152 21.2682 13.0427 21.5047 12.8522 21.6059C12.7936 21.6369 12.731 21.6516 12.6691 21.6516ZM21.805 30.0759C21.0653 30.0759 20.3702 29.7963 20.0218 29.1563L10.3816 11.4597L7.29313 10.6323C7.08496 10.5764 6.96111 10.3622 7.01645 10.1539C7.07269 9.94542 7.28663 9.8218 7.49498 9.87769L10.7454 10.7484C10.8487 10.7761 10.9357 10.845 10.987 10.9389L20.708 28.7825C21.0376 29.3874 22.0694 29.4174 22.8262 29.0656C23.0688 28.9526 23.8402 28.5299 23.5667 27.827L21.6016 22.7726C21.5234 22.5715 21.6226 22.3452 21.8236 22.2669C22.0247 22.1889 22.2508 22.2883 22.329 22.4894L24.2952 27.5436C24.6355 28.4188 24.1877 29.2943 23.155 29.7741C22.7359 29.9689 22.2614 30.0759 21.805 30.0759ZM25.1286 35.8914C24.2969 35.8914 23.4895 35.802 22.7334 35.6229C20.5786 35.1127 18.9427 33.9066 18.0028 32.1371L13.2315 23.153C13.1306 22.9626 13.203 22.7261 13.3934 22.6249C13.5839 22.5239 13.8207 22.5961 13.9216 22.7867L18.6929 31.7706C19.9624 34.1613 22.4755 35.1135 25.1024 35.1135C26.3142 35.1135 27.5487 34.9117 28.6986 34.5544C31.9914 33.533 35.1447 31.0203 34.7672 27.7111L33.8175 19.3954C33.7931 19.1811 33.9469 18.9875 34.1617 18.9631C34.3758 18.9385 34.5694 19.0925 34.5938 19.3068L35.5436 27.6225C35.9717 31.3758 32.5308 34.1833 28.9297 35.3007C27.6668 35.6929 26.3703 35.8915 25.1286 35.8914Z" fill="#FFC31B"/>
<path fill-rule="evenodd" clip-rule="evenodd" d="M34.3488 17.3612C34.2839 17.3612 34.2178 17.3698 34.1527 17.3872L21.031 20.9031C20.6258 21.0116 20.3848 21.4292 20.4938 21.8341C20.546 22.0289 20.6713 22.1924 20.8479 22.2944C21.0246 22.3964 21.2295 22.4236 21.424 22.3715C21.424 22.3716 21.4241 22.3715 21.424 22.3715L34.5466 18.8554C34.9511 18.7469 35.1928 18.3294 35.0837 17.9245C35.0316 17.7296 34.9055 17.5662 34.7289 17.4642C34.6109 17.3961 34.4807 17.3613 34.3488 17.3612ZM21.2271 23.179C20.9601 23.179 20.6957 23.1086 20.4572 22.971C20.1001 22.7647 19.8452 22.4327 19.7386 22.0363C19.5189 21.2153 20.008 20.3685 20.8283 20.1486L33.951 16.6324C34.3474 16.5262 34.7623 16.5813 35.1195 16.7876C35.4768 16.9939 35.7323 17.3259 35.8389 17.7224C36.0587 18.5432 35.5696 19.3901 34.7484 19.6101L21.6267 23.1261C21.4948 23.1616 21.3605 23.179 21.2271 23.179Z" fill="#FFC31B"/>
<path fill-rule="evenodd" clip-rule="evenodd" d="M1.37451 9.07176L0.938353 10.7911C0.879759 11.0199 0.87473 11.1223 0.917868 11.2125C0.976624 11.3373 1.0611 11.4108 1.17665 11.4371L6.04169 12.5445C6.2411 12.5899 6.48918 12.5334 6.52825 12.38L6.96455 10.6607C7.02222 10.432 7.02709 10.3296 6.98478 10.2395C6.92554 10.1144 6.84074 10.041 6.72597 10.0147L1.86028 8.90726C1.6618 8.86193 1.41195 8.92276 1.37451 9.07176ZM6.17683 13.3407C6.07263 13.3407 5.96834 13.3292 5.86822 13.3064L1.00334 12.1988C0.653435 12.1193 0.372623 11.8876 0.211489 11.5462C0.0488107 11.202 0.110565 10.8768 0.180578 10.599L0.616802 8.8796C0.775605 8.25421 1.46148 8.01518 2.03362 8.14547L6.89936 9.25303C7.24854 9.33259 7.53 9.56441 7.69118 9.9058C7.85314 10.2498 7.79206 10.575 7.72124 10.8528L7.28515 12.5722C7.15405 13.0877 6.66493 13.3408 6.17683 13.3407Z" fill="#FFC31B"/>
<path fill-rule="evenodd" clip-rule="evenodd" d="M14.0244 10.9288C13.974 10.9288 13.9234 10.9354 13.8738 10.9487C13.725 10.9885 13.6012 11.0839 13.5239 11.2172C13.4474 11.3505 13.4262 11.5059 13.4661 11.6546C13.5483 11.9615 13.8657 12.1442 14.1725 12.062C14.4794 11.9797 14.6624 11.6632 14.5794 11.3562C14.5404 11.2075 14.4443 11.0833 14.3108 11.0063C14.2221 10.955 14.1237 10.9288 14.0244 10.9288ZM14.0237 12.863C13.4238 12.863 12.8745 12.4626 12.7117 11.8567C12.6181 11.5064 12.6662 11.1406 12.8476 10.8266C13.0292 10.5125 13.3212 10.2879 13.672 10.194C14.0219 10.1003 14.3881 10.1485 14.7023 10.3297C15.0157 10.5109 15.2402 10.8037 15.3346 11.1541C15.5284 11.877 15.0978 12.6229 14.3743 12.8167C14.2571 12.848 14.1392 12.8631 14.0237 12.863Z" fill="#FFC31B"/>
<path fill-rule="evenodd" clip-rule="evenodd" d="M11.2547 12.6376C11.0822 12.6376 10.9242 12.5226 10.877 12.3481C10.8216 12.1396 10.9453 11.9255 11.1537 11.8696L12.9872 11.3781C13.1963 11.3224 13.4103 11.446 13.4657 11.6545C13.5219 11.8627 13.3982 12.077 13.1898 12.1329L11.3556 12.6243C11.3222 12.6333 11.2879 12.6377 11.2547 12.6376Z" fill="#FFC31B"/>
<path fill-rule="evenodd" clip-rule="evenodd" d="M9.47919 14.6783C9.4303 14.6783 9.37988 14.6847 9.33021 14.698C9.18128 14.7378 9.05678 14.8333 8.98031 14.9667C8.90296 15.1 8.88261 15.2555 8.9225 15.4043C8.96248 15.553 9.05756 15.6774 9.19106 15.7544C9.32465 15.8315 9.47997 15.8519 9.62885 15.812C9.77783 15.7722 9.9015 15.6768 9.97883 15.5434C10.0562 15.4098 10.0765 15.2546 10.0366 15.1059C9.96754 14.8484 9.73384 14.6783 9.47919 14.6783ZM9.47755 16.6135C9.24243 16.6135 9.00958 16.5518 8.80044 16.431C8.48639 16.2496 8.2617 15.9569 8.16811 15.6065C8.07386 15.2561 8.12253 14.8902 8.30318 14.5761C8.48475 14.2619 8.77763 14.0373 9.12838 13.9434C9.85107 13.7496 10.5973 14.1803 10.791 14.9037C10.8854 15.2538 10.8366 15.6199 10.6551 15.934C10.4746 16.2481 10.1815 16.4728 9.83068 16.5667C9.71448 16.5979 9.59554 16.6135 9.47755 16.6135Z" fill="#FFC31B"/>
<path fill-rule="evenodd" clip-rule="evenodd" d="M11.3011 18.1085C11.2515 18.1085 11.2018 18.1149 11.1522 18.1282C11.0033 18.1682 10.8788 18.2636 10.8014 18.397C10.7251 18.5303 10.7046 18.6858 10.7444 18.8345C10.7837 18.9833 10.8795 19.1077 11.013 19.1847C11.1466 19.2616 11.3011 19.2822 11.4501 19.2424C11.7578 19.1599 11.9407 18.8431 11.8577 18.536C11.7895 18.2787 11.5558 18.1086 11.3011 18.1085ZM11.3011 20.0433C10.7022 20.0433 10.152 19.6428 9.98924 19.0368C9.79563 18.3135 10.2261 17.5675 10.9495 17.3736C11.673 17.1797 12.4192 17.6105 12.613 18.3337C12.8068 19.057 12.3761 19.8032 11.6526 19.9969C11.5355 20.0283 11.4175 20.0434 11.3011 20.0433Z" fill="#FFC31B"/>
<path fill-rule="evenodd" clip-rule="evenodd" d="M13.1224 21.5386C13.0735 21.5386 13.023 21.545 12.9734 21.5584C12.8244 21.5982 12.6999 21.6936 12.6234 21.827C12.5461 21.9604 12.5257 22.1158 12.5657 22.2646C12.6056 22.4133 12.7007 22.5378 12.8342 22.6148C12.9678 22.6917 13.1231 22.7122 13.272 22.6724C13.421 22.6324 13.5455 22.537 13.622 22.4037C13.6993 22.2703 13.7196 22.1149 13.6797 21.9661C13.6107 21.7087 13.377 21.5386 13.1224 21.5386ZM13.1207 23.4738C12.8856 23.4738 12.6527 23.4121 12.4436 23.2914C12.1296 23.11 11.9048 22.8172 11.8112 22.4668C11.7168 22.1165 11.7657 21.7506 11.9463 21.4365C12.1279 21.1222 12.4208 20.8976 12.7715 20.8037C13.4943 20.61 14.2405 21.0405 14.4341 21.7639C14.5286 22.1142 14.4797 22.4802 14.299 22.7944C14.1175 23.1083 13.8246 23.3332 13.4738 23.427C13.3575 23.4583 13.2387 23.4739 13.1207 23.4738Z" fill="#FFC31B"/>
<path fill-rule="evenodd" clip-rule="evenodd" d="M15.584 13.7933C15.5344 13.7933 15.4839 13.7998 15.4343 13.8132C15.2854 13.853 15.1608 13.9484 15.0844 14.0817C15.0071 14.2149 14.9867 14.3702 15.0266 14.519C15.0666 14.6677 15.1617 14.792 15.2951 14.869C15.4286 14.9458 15.5833 14.9663 15.7321 14.9265C15.8812 14.8867 16.0056 14.7913 16.0821 14.658C16.1595 14.5247 16.1797 14.3694 16.1399 14.2207C16.1 14.0719 16.0048 13.9477 15.8713 13.8707C15.7827 13.8194 15.6841 13.7933 15.584 13.7933ZM15.5809 15.7279C15.3456 15.7279 15.1137 15.6663 14.9045 15.5455C14.5905 15.3642 14.3657 15.0715 14.2722 14.7212C14.1778 14.371 14.2266 14.0052 14.4073 13.6911C14.5889 13.3771 14.8817 13.1525 15.2317 13.0586C15.5823 12.9647 15.9478 13.0129 16.2619 13.1941C16.5761 13.3754 16.8007 13.6682 16.8943 14.0185C16.9888 14.3686 16.9406 14.7346 16.7592 15.0486C16.5778 15.3626 16.2847 15.5874 15.9348 15.6811C15.8177 15.7124 15.6988 15.728 15.5809 15.7279Z" fill="#FFC31B"/>
<path fill-rule="evenodd" clip-rule="evenodd" d="M12.8149 15.5023C12.6432 15.5023 12.4852 15.3873 12.438 15.2127C12.3828 15.0043 12.5056 14.7902 12.7147 14.7343L14.5484 14.2429C14.7566 14.1871 14.9706 14.3107 15.0268 14.5191C15.0831 14.7275 14.9592 14.9416 14.7509 14.9976L12.9167 15.489C12.8825 15.498 12.849 15.5023 12.8149 15.5023Z" fill="#FFC31B"/>
<path fill-rule="evenodd" clip-rule="evenodd" d="M16.9948 16.6779C16.6879 16.7602 16.5055 17.0769 16.5877 17.3838C16.6277 17.5325 16.7229 17.6567 16.8563 17.7337C16.9891 17.8106 17.1444 17.8312 17.2933 17.7913C17.6001 17.7091 17.7832 17.3924 17.701 17.0854C17.6188 16.7784 17.3016 16.5956 16.9948 16.6779ZM17.142 18.5927C16.9069 18.5927 16.6748 18.5311 16.4657 18.4103C16.1516 18.229 15.9269 17.9363 15.8325 17.586C15.6389 16.863 16.0693 16.1172 16.7928 15.9233C17.5155 15.7297 18.2617 16.1602 18.4554 16.8833C18.6491 17.6063 18.2186 18.3522 17.4951 18.546C17.3788 18.5773 17.2599 18.5928 17.142 18.5927Z" fill="#FFC31B"/>
<path fill-rule="evenodd" clip-rule="evenodd" d="M14.3757 18.367C14.2032 18.367 14.0452 18.2519 13.9989 18.0774C13.9428 17.869 14.0664 17.6549 14.2747 17.5989L16.1091 17.1076C16.3175 17.052 16.5314 17.1754 16.5876 17.3838C16.6431 17.5921 16.5192 17.8064 16.3109 17.8622L14.4775 18.3536C14.4432 18.3626 14.409 18.367 14.3757 18.367Z" fill="#FFC31B"/>
<path fill-rule="evenodd" clip-rule="evenodd" d="M25.2581 24.3484C25.0855 24.3484 24.9276 24.2334 24.8812 24.0589C24.8251 23.8504 24.9487 23.6363 25.157 23.5804L31.9182 21.7687C32.1274 21.7131 32.3413 21.8365 32.3966 22.0449C32.4529 22.2533 32.3291 22.4675 32.1208 22.5234L25.3598 24.3351C25.3255 24.3441 25.2913 24.3485 25.2581 24.3484Z" fill="#FFC31B"/>
<path fill-rule="evenodd" clip-rule="evenodd" d="M31.0842 31.5526C30.9874 31.5526 30.8897 31.5166 30.814 31.4439C30.6587 31.2944 30.6529 31.0472 30.8026 30.8916C31.7883 29.8654 32.8778 28.2041 32.4791 26.1174C32.4385 25.9054 32.5775 25.7008 32.7891 25.6603C33.0008 25.6192 33.2058 25.7586 33.2465 25.9705C33.6071 27.8543 32.9389 29.7943 31.3666 31.4326C31.2893 31.5125 31.1868 31.5527 31.0842 31.5526Z" fill="#FFC31B"/>
<path fill-rule="evenodd" clip-rule="evenodd" d="M21.671 9.74015L22.1617 11.5708L26.8159 8.88872L26.326 7.05803L21.671 9.74015ZM21.9159 12.5539C21.8656 12.5539 21.815 12.5441 21.7661 12.5242C21.6547 12.4777 21.57 12.3817 21.5391 12.2644L20.8393 9.65254C20.793 9.4816 20.8677 9.30137 21.0215 9.21306L26.3764 6.1271C26.4813 6.06641 26.6091 6.05834 26.7206 6.10475C26.8331 6.15119 26.9175 6.24722 26.9485 6.3645L27.6484 8.97624C27.694 9.14718 27.6198 9.32757 27.466 9.41586L22.1113 12.5018C22.0511 12.5364 21.9834 12.554 21.9159 12.5539Z" fill="#FFC31B"/>
<path fill-rule="evenodd" clip-rule="evenodd" d="M26.7039 12.5881C26.4126 12.6663 26.1537 12.8252 25.9942 13.024C25.9171 13.1203 25.7949 13.3126 25.8502 13.518C25.9055 13.7233 26.1065 13.8292 26.2213 13.8739C26.4589 13.9664 26.7624 13.9744 27.0546 13.8962C27.6121 13.7467 28.0035 13.321 27.9083 12.9665C27.8131 12.612 27.2622 12.4385 26.7039 12.5881ZM26.6559 14.7313C26.4036 14.7313 26.1595 14.688 25.9389 14.602C25.5084 14.4346 25.2008 14.1132 25.0958 13.7202C24.99 13.3271 25.0958 12.8952 25.3847 12.535C25.6501 12.2047 26.0463 11.9556 26.502 11.8336C27.5014 11.5655 28.4511 11.9743 28.6627 12.7643C28.8744 13.5542 28.2566 14.383 27.2564 14.6509C27.0564 14.7046 26.8536 14.7313 26.6559 14.7313Z" fill="#FFC31B"/>
<path fill-rule="evenodd" clip-rule="evenodd" d="M28.2855 13.2559C28.1138 13.2559 27.9558 13.1409 27.9086 12.9664L26.8939 9.17855C26.8377 8.97017 26.9614 8.75603 27.1697 8.70018C27.3781 8.64433 27.5929 8.76798 27.6483 8.97638L28.6631 12.7642C28.7193 12.9725 28.5955 13.1868 28.3871 13.2427C28.3531 13.2517 28.3196 13.256 28.2855 13.2559Z" fill="#FFC31B"/>
<path fill-rule="evenodd" clip-rule="evenodd" d="M21.3496 15.6739C20.7921 15.8233 20.4006 16.2491 20.4958 16.6037C20.5912 16.9581 21.142 17.1315 21.7002 16.982C21.9916 16.9038 22.2504 16.745 22.4099 16.5463C22.4872 16.4498 22.6093 16.2575 22.554 16.0522C22.4589 15.6976 21.9071 15.5243 21.3496 15.6739ZM21.2927 17.8186C20.5399 17.8186 19.9091 17.432 19.7406 16.8059C19.5292 16.0159 20.1475 15.1873 21.1477 14.9193C22.148 14.6513 23.0967 15.0602 23.3083 15.85C23.4141 16.2429 23.3083 16.675 23.0194 17.0353C22.7542 17.3654 22.3578 17.6146 21.9021 17.7367C21.6946 17.7922 21.4895 17.8186 21.2927 17.8186Z" fill="#FFC31B"/>
<path fill-rule="evenodd" clip-rule="evenodd" d="M22.9305 16.342C22.758 16.342 22.6001 16.2268 22.5537 16.0523L21.5389 12.2645C21.4829 12.0561 21.6064 11.842 21.8148 11.7861C22.0232 11.7303 22.2371 11.8539 22.2932 12.0624L23.3082 15.8501C23.3643 16.0585 23.2405 16.2727 23.0322 16.3285C22.9981 16.3375 22.9639 16.342 22.9305 16.342Z" fill="#FFC31B"/>
<path fill-rule="evenodd" clip-rule="evenodd" d="M30.7598 2.60193L31.2498 4.43262L33.871 2.92216L33.3804 1.09147L30.7598 2.60193ZM31.0041 5.4157C30.9535 5.4157 30.903 5.4059 30.855 5.38594C30.7428 5.33934 30.658 5.24345 30.6271 5.12619L29.9274 2.51431C29.8818 2.34347 29.9557 2.16321 30.1095 2.07484L33.4317 0.160569C33.5366 0.0998761 33.6634 0.091756 33.7757 0.138216C33.8882 0.184653 33.9719 0.280733 34.0036 0.39799L34.7035 3.0098C34.7491 3.18062 34.6742 3.36104 34.5212 3.44935L31.1992 5.36352C31.1392 5.39812 31.0715 5.41575 31.0041 5.4157Z" fill="#FFC31B"/>
<path fill-rule="evenodd" clip-rule="evenodd" d="M30.8367 8.48246C30.7065 8.48246 30.5705 8.50013 30.4379 8.53577C29.8805 8.68523 29.489 9.11105 29.5842 9.46554C29.6795 9.82004 30.2304 9.99346 30.7887 9.8438C31.3461 9.69424 31.7376 9.26861 31.6423 8.91402C31.5871 8.70867 31.386 8.60283 31.2704 8.55808C31.141 8.50772 30.9921 8.48248 30.8367 8.48246ZM30.381 10.6804C29.6282 10.6805 28.9975 10.2939 28.829 9.66776C28.6175 8.87769 29.2359 8.04912 30.2361 7.78113C30.6911 7.65903 31.1589 7.6764 31.5536 7.82997C31.9842 7.99731 32.2917 8.31881 32.3967 8.71187C32.6085 9.50181 31.9906 10.3304 30.9905 10.5984C30.7831 10.654 30.5779 10.6805 30.381 10.6804Z" fill="#FFC31B"/>
<path fill-rule="evenodd" clip-rule="evenodd" d="M32.0189 9.20351C31.8465 9.20351 31.6884 9.08849 31.642 8.91393L30.6273 5.12602C30.5711 4.91774 30.6948 4.70355 30.9031 4.64765C31.1114 4.5919 31.3255 4.71552 31.3816 4.92395L32.3965 8.71169C32.4527 8.92007 32.3289 9.13433 32.1206 9.19013C32.0865 9.19913 32.0522 9.20358 32.0189 9.20351Z" fill="#FFC31B"/>
<path fill-rule="evenodd" clip-rule="evenodd" d="M17.761 6.47911C17.5885 6.47911 17.4306 6.36399 17.3842 6.1895L17.15 5.31648C17.0945 5.1081 17.2182 4.89393 17.4265 4.83811C17.6348 4.78228 17.8489 4.90598 17.9042 5.11431L18.1387 5.98719C18.1941 6.19566 18.0702 6.40988 17.8619 6.4657C17.8286 6.47472 17.7943 6.47915 17.761 6.47911Z" fill="#FFC31B"/>
<path fill-rule="evenodd" clip-rule="evenodd" d="M18.4882 9.19252C18.3157 9.19252 18.1577 9.07743 18.1113 8.90296L17.877 8.02989C17.8217 7.82151 17.9453 7.6073 18.1536 7.55147C18.362 7.49567 18.576 7.61943 18.6322 7.82776L18.8657 8.70079C18.9219 8.90907 18.7982 9.12333 18.5899 9.17916C18.5557 9.18823 18.5215 9.19259 18.4882 9.19252Z" fill="#FFC31B"/>
<path fill-rule="evenodd" clip-rule="evenodd" d="M18.9285 7.15278C18.7559 7.15278 18.598 7.03769 18.5508 6.86313C18.4955 6.65473 18.6191 6.44061 18.8275 6.38478L19.7 6.15082C19.9091 6.09507 20.123 6.21876 20.1784 6.42709C20.2346 6.63551 20.1108 6.84971 19.9025 6.90553L19.0294 7.13942C18.9959 7.1484 18.9617 7.15285 18.9285 7.15278Z" fill="#FFC31B"/>
<path fill-rule="evenodd" clip-rule="evenodd" d="M16.2151 7.87993C16.0426 7.87993 15.8846 7.76487 15.8374 7.59031C15.7821 7.38189 15.9058 7.16769 16.1141 7.11187L16.9866 6.87798C17.1949 6.82195 17.4097 6.94578 17.465 7.15418C17.5212 7.36249 17.3975 7.57672 17.1892 7.63255L16.316 7.86648C16.2818 7.87555 16.2484 7.87993 16.2151 7.87993Z" fill="#FFC31B"/>
<path fill-rule="evenodd" clip-rule="evenodd" d="M22.7483 3.45761C22.5758 3.45761 22.4178 3.34259 22.3706 3.16804L22.1371 2.29506C22.0809 2.08661 22.2046 1.87246 22.4129 1.81664C22.6214 1.76077 22.8353 1.88451 22.8914 2.09284L23.1259 2.96589C23.1812 3.17415 23.0574 3.3885 22.8491 3.44433C22.8149 3.4533 22.7816 3.45766 22.7483 3.45761Z" fill="#FFC31B"/>
<path fill-rule="evenodd" clip-rule="evenodd" d="M23.475 6.17112C23.3023 6.17112 23.1444 6.05599 23.0981 5.88143L22.8638 5.00841C22.8085 4.80003 22.932 4.58586 23.1404 4.53004C23.3488 4.47412 23.5627 4.59788 23.6181 4.8063L23.8525 5.67921C23.9078 5.88768 23.7841 6.1019 23.5758 6.15772C23.5425 6.16674 23.5082 6.17112 23.475 6.17112Z" fill="#FFC31B"/>
<path fill-rule="evenodd" clip-rule="evenodd" d="M23.9144 4.1313C23.7419 4.1313 23.5838 4.01623 23.5375 3.84167C23.4813 3.63325 23.605 3.41906 23.8134 3.36323L24.6867 3.12934C24.8949 3.07359 25.1089 3.19721 25.165 3.40563C25.2212 3.61392 25.0975 3.82816 24.8884 3.88407L24.016 4.11792C23.9819 4.12689 23.9476 4.1313 23.9144 4.1313Z" fill="#FFC31B"/>
<path fill-rule="evenodd" clip-rule="evenodd" d="M21.2014 4.85842C21.0289 4.85842 20.8709 4.74338 20.8245 4.56889C20.7685 4.36046 20.8921 4.14627 21.1004 4.09045L21.9737 3.85646C22.1819 3.80052 22.396 3.92426 22.4521 4.13268C22.5075 4.34104 22.3837 4.5553 22.1754 4.61112L21.303 4.84495C21.269 4.8541 21.2347 4.85844 21.2014 4.85842Z" fill="#FFC31B"/>
</svg>
