<svg width="40" height="50" viewBox="0 0 40 50" fill="none" xmlns="http://www.w3.org/2000/svg">
<path d="M15.0116 34.6236C14.8866 34.6237 14.7635 34.5935 14.6528 34.5354C14.5205 34.4606 14.4115 34.3507 14.3377 34.2178C14.264 34.0849 14.2285 33.9343 14.2352 33.7824V16.6295C14.2352 16.4735 14.2971 16.3239 14.4074 16.2135C14.5178 16.1032 14.6674 16.0413 14.8234 16.0413H24.2352C24.3912 16.0413 24.5408 16.1032 24.6511 16.2135C24.7614 16.3239 24.8234 16.4735 24.8234 16.6295V33.7824C24.8352 33.9375 24.8016 34.0927 24.7267 34.2289C24.6517 34.3652 24.5387 34.4766 24.4014 34.5497C24.264 34.6227 24.1084 34.6541 23.9535 34.6401C23.7987 34.626 23.6512 34.5672 23.5293 34.4707L19.541 31.8766C19.5057 31.8766 19.4999 31.8766 19.4705 31.8766L15.4999 34.4707C15.3553 34.5678 15.1857 34.6209 15.0116 34.6236ZM19.5293 30.6824C19.7702 30.6823 20.0057 30.754 20.2057 30.8883L23.6469 33.1295V17.2471H15.4116V33.1295L18.8528 30.8942C19.0531 30.7597 19.2881 30.6861 19.5293 30.6824Z" fill="white"/>
<path d="M35.5998 22.2942C35.4699 22.2938 35.3437 22.2503 35.241 22.1707L31.8587 19.5589C29.759 18.0241 27.2241 17.1998 24.6234 17.206H4.88218C4.72617 17.206 4.57655 17.144 4.46624 17.0337C4.35592 16.9233 4.29395 16.7737 4.29395 16.6177V12.353C4.29395 12.197 4.35592 12.0474 4.46624 11.9371C4.57655 11.8268 4.72617 11.7648 4.88218 11.7648H24.6234C27.2241 11.7709 29.759 10.9466 31.8587 9.41183L35.241 6.79419C35.3282 6.7278 35.4323 6.68712 35.5414 6.67672C35.6506 6.66633 35.7604 6.68664 35.8587 6.73536C35.9568 6.78343 36.0395 6.85787 36.0977 6.95034C36.1559 7.0428 36.1872 7.14965 36.1881 7.25889V21.706C36.1883 21.8162 36.1575 21.9243 36.0993 22.0179C36.041 22.1115 35.9577 22.1869 35.8587 22.2354C35.778 22.2744 35.6895 22.2946 35.5998 22.2942ZM5.47042 16.0412H24.6234C27.4848 16.0192 30.2759 16.9275 32.5763 18.6295L35.0116 20.5118V8.47654L32.5763 10.3589C30.2752 12.0588 27.4841 12.965 24.6234 12.9412H5.47042V16.0412Z" fill="white"/>
<path d="M3.67039 18.4293H2.97627C2.49936 18.4278 2.04242 18.2376 1.70519 17.9004C1.36796 17.5632 1.17782 17.1062 1.17627 16.6293V12.3528C1.187 11.8821 1.38119 11.4341 1.71744 11.1045C2.05368 10.7748 2.50539 10.5895 2.97627 10.5881H3.67039C4.14172 10.588 4.59429 10.7728 4.93086 11.1028C5.26743 11.4328 5.46115 11.8816 5.47039 12.3528V16.6234C5.47116 16.8603 5.42517 17.095 5.33506 17.3141C5.24495 17.5331 5.11249 17.7323 4.94526 17.9C4.77804 18.0678 4.57935 18.2009 4.36058 18.2917C4.14181 18.3826 3.90726 18.4293 3.67039 18.4293ZM2.97627 11.7646C2.81684 11.7643 2.66336 11.8252 2.54739 11.9346C2.43142 12.044 2.36176 12.1937 2.35274 12.3528V16.6234C2.35427 16.7883 2.42046 16.946 2.53706 17.0626C2.65367 17.1792 2.81137 17.2454 2.97627 17.247H3.67039C3.83428 17.2455 3.99112 17.1801 4.10756 17.0647C4.224 16.9494 4.29086 16.7932 4.29392 16.6293V12.3528C4.28489 12.1937 4.21524 12.044 4.09927 11.9346C3.98329 11.8252 3.82982 11.7643 3.67039 11.7646H2.97627Z" fill="white"/>
<path d="M36.9176 23.6118C36.4126 23.6102 35.9287 23.4089 35.5717 23.0518C35.2146 22.6948 35.0133 22.2109 35.0117 21.7059V7.27649C35.0117 6.77102 35.2125 6.28625 35.5699 5.92883C35.9274 5.5714 36.4121 5.37061 36.9176 5.37061C37.4231 5.37061 37.9078 5.5714 38.2653 5.92883C38.6227 6.28625 38.8235 6.77102 38.8235 7.27649V21.7059C38.8235 22.2114 38.6227 22.6961 38.2653 23.0536C37.9078 23.411 37.4231 23.6118 36.9176 23.6118ZM36.9176 6.55296C36.7252 6.55295 36.5405 6.62899 36.4039 6.76451C36.2673 6.90004 36.1897 7.08406 36.1882 7.27649V21.7059C36.1882 21.8994 36.265 22.0849 36.4018 22.2217C36.5386 22.3585 36.7241 22.4353 36.9176 22.4353C37.1111 22.4353 37.2966 22.3585 37.4334 22.2217C37.5702 22.0849 37.647 21.8994 37.647 21.7059V7.27649C37.6455 7.08406 37.5679 6.90004 37.4313 6.76451C37.2947 6.62899 37.11 6.55295 36.9176 6.55296Z" fill="white"/>
<path d="M19.5293 24.6117C18.9579 24.6117 18.3992 24.4421 17.9241 24.1245C17.449 23.8069 17.0788 23.3555 16.8604 22.8274C16.642 22.2993 16.5851 21.7182 16.697 21.1578C16.809 20.5974 17.0846 20.0828 17.4891 19.6791C17.8937 19.2754 18.4088 19.0008 18.9695 18.89C19.5301 18.7792 20.1111 18.8372 20.6387 19.0568C21.1664 19.2763 21.617 19.6474 21.9337 20.1231C22.2503 20.5988 22.4187 21.1578 22.4176 21.7293C22.416 22.4943 22.111 23.2274 21.5696 23.7678C21.0281 24.3082 20.2943 24.6117 19.5293 24.6117ZM19.5293 20.0176C19.1908 20.0176 18.8598 20.118 18.5783 20.306C18.2968 20.4941 18.0774 20.7615 17.9479 21.0743C17.8183 21.387 17.7844 21.7312 17.8505 22.0633C17.9165 22.3953 18.0795 22.7003 18.3189 22.9397C18.5583 23.1791 18.8633 23.3421 19.1954 23.4082C19.5274 23.4742 19.8716 23.4403 20.1844 23.3108C20.4972 23.1812 20.7645 22.9618 20.9526 22.6803C21.1407 22.3988 21.2411 22.0679 21.2411 21.7293C21.2434 21.5031 21.2009 21.2786 21.1159 21.0688C21.0309 20.8591 20.9052 20.6683 20.746 20.5075C20.5868 20.3467 20.3974 20.219 20.1885 20.1319C19.9797 20.0448 19.7556 19.9999 19.5293 19.9999V20.0176Z" fill="white"/>
<path d="M22.3531 26.7529H16.6825C16.5265 26.7529 16.3768 26.6909 16.2665 26.5806C16.1562 26.4703 16.0942 26.3207 16.0942 26.1647C16.0942 26.0086 16.1562 25.859 16.2665 25.7487C16.3768 25.6384 16.5265 25.5764 16.6825 25.5764H22.3531C22.5091 25.5764 22.6587 25.6384 22.769 25.7487C22.8793 25.859 22.9413 26.0086 22.9413 26.1647C22.9413 26.3207 22.8793 26.4703 22.769 26.5806C22.6587 26.6909 22.5091 26.7529 22.3531 26.7529Z" fill="white"/>
<path d="M21.0119 28.8881H16.6825C16.5265 28.8881 16.3768 28.8262 16.2665 28.7159C16.1562 28.6055 16.0942 28.4559 16.0942 28.2999C16.0942 28.1439 16.1562 27.9943 16.2665 27.884C16.3768 27.7736 16.5265 27.7117 16.6825 27.7117H21.0119C21.1679 27.7117 21.3175 27.7736 21.4278 27.884C21.5381 27.9943 21.6001 28.1439 21.6001 28.2999C21.6001 28.4559 21.5381 28.6055 21.4278 28.7159C21.3175 28.8262 21.1679 28.8881 21.0119 28.8881Z" fill="white"/>
<path d="M21.2767 12.9412C21.1207 12.9412 20.9711 12.8792 20.8608 12.7689C20.7505 12.6586 20.6885 12.5089 20.6885 12.3529V9.77647C20.6885 9.62046 20.7505 9.47084 20.8608 9.36052C20.9711 9.25021 21.1207 9.18823 21.2767 9.18823C21.4327 9.18823 21.5823 9.25021 21.6927 9.36052C21.803 9.47084 21.8649 9.62046 21.8649 9.77647V12.3529C21.8649 12.5089 21.803 12.6586 21.6927 12.7689C21.5823 12.8792 21.4327 12.9412 21.2767 12.9412Z" fill="white"/>
<path d="M22.5352 10.3647H19.9999C19.8438 10.3647 19.6942 10.3027 19.5839 10.1924C19.4736 10.0821 19.4116 9.93248 19.4116 9.77647C19.4116 9.62046 19.4736 9.47084 19.5839 9.36052C19.6942 9.25021 19.8438 9.18823 19.9999 9.18823H22.5116C22.6676 9.18823 22.8173 9.25021 22.9276 9.36052C23.0379 9.47084 23.0999 9.62046 23.0999 9.77647C23.0999 9.93248 23.0379 10.0821 22.9276 10.1924C22.8173 10.3027 22.6676 10.3647 22.5116 10.3647H22.5352Z" fill="white"/>
<path d="M16.6825 12.9412C16.5265 12.9412 16.3768 12.8792 16.2665 12.7689C16.1562 12.6586 16.0942 12.5089 16.0942 12.3529V9.77647C16.0942 9.62046 16.1562 9.47084 16.2665 9.36052C16.3768 9.25021 16.5265 9.18823 16.6825 9.18823C16.8385 9.18823 16.9881 9.25021 17.0984 9.36052C17.2087 9.47084 17.2707 9.62046 17.2707 9.77647V12.3529C17.2707 12.5089 17.2087 12.6586 17.0984 12.7689C16.9881 12.8792 16.8385 12.9412 16.6825 12.9412Z" fill="white"/>
<path d="M17.9354 10.3647H15.4295C15.2735 10.3647 15.1239 10.3027 15.0136 10.1924C14.9033 10.0821 14.8413 9.93248 14.8413 9.77647C14.8413 9.62046 14.9033 9.47084 15.0136 9.36052C15.1239 9.25021 15.2735 9.18823 15.4295 9.18823H17.9354C18.0914 9.18823 18.2411 9.25021 18.3514 9.36052C18.4617 9.47084 18.5237 9.62046 18.5237 9.77647C18.5237 9.93248 18.4617 10.0821 18.3514 10.1924C18.2411 10.3027 18.0914 10.3647 17.9354 10.3647Z" fill="white"/>
<path d="M12.0824 12.9412C11.9264 12.9412 11.7767 12.8792 11.6664 12.7689C11.5561 12.6586 11.4941 12.5089 11.4941 12.3529V9.77647C11.4941 9.62046 11.5561 9.47084 11.6664 9.36052C11.7767 9.25021 11.9264 9.18823 12.0824 9.18823C12.2384 9.18823 12.388 9.25021 12.4983 9.36052C12.6086 9.47084 12.6706 9.62046 12.6706 9.77647V12.3529C12.6706 12.5089 12.6086 12.6586 12.4983 12.7689C12.388 12.8792 12.2384 12.9412 12.0824 12.9412Z" fill="white"/>
<path d="M13.3353 10.3647H10.8294C10.6734 10.3647 10.5238 10.3027 10.4135 10.1924C10.3032 10.0821 10.2412 9.93248 10.2412 9.77647C10.2412 9.62046 10.3032 9.47084 10.4135 9.36052C10.5238 9.25021 10.6734 9.18823 10.8294 9.18823H13.3353C13.4913 9.18823 13.641 9.25021 13.7513 9.36052C13.8616 9.47084 13.9236 9.62046 13.9236 9.77647C13.9236 9.93248 13.8616 10.0821 13.7513 10.1924C13.641 10.3027 13.4913 10.3647 13.3353 10.3647Z" fill="white"/>
</svg>
